<?xml version="1.0" encoding="UTF-8"?>
<!DOCTYPE svg PUBLIC "-//W3C//DTD SVG 1.1//EN" "http://www.w3.org/Graphics/SVG/1.1/DTD/svg11.dtd">
<svg xmlns="http://www.w3.org/2000/svg" version="1.1" width="96px" height="143px" style="shape-rendering:geometricPrecision; text-rendering:geometricPrecision; image-rendering:optimizeQuality; fill-rule:evenodd; clip-rule:evenodd" xmlns:xlink="http://www.w3.org/1999/xlink">
<g><path style="opacity:1" fill="#ebd8b7" d="M -0.5,-0.5 C 0.833333,-0.5 2.16667,-0.5 3.5,-0.5C 3.5,-0.166667 3.5,0.166667 3.5,0.5C 1.56954,0.770553 0.236209,1.77055 -0.5,3.5C -0.5,2.16667 -0.5,0.833333 -0.5,-0.5 Z"/></g>
<g><path style="opacity:1" fill="#e8b353" d="M 3.5,0.5 C 32.6715,0.168632 61.6715,0.501966 90.5,1.5C 61.9951,1.16868 33.6618,1.50201 5.5,2.5C 3.97306,2.42702 2.97306,3.09368 2.5,4.5C 2.16667,4.5 1.83333,4.5 1.5,4.5C 1.73286,2.93819 2.39952,1.60486 3.5,0.5 Z"/></g>
<g><path style="opacity:1" fill="#ecd9b5" d="M 91.5,-0.5 C 92.8333,-0.5 94.1667,-0.5 95.5,-0.5C 95.5,0.833333 95.5,2.16667 95.5,3.5C 94.5,1.83333 93.1667,0.5 91.5,-0.5 Z"/></g>
<g><path style="opacity:1" fill="#6e5a2d" d="M 5.5,2.5 C 33.6618,1.50201 61.9951,1.16868 90.5,1.5C 90.5,1.83333 90.5,2.16667 90.5,2.5C 88.5,2.5 86.5,2.5 84.5,2.5C 84.1667,2.5 83.8333,2.5 83.5,2.5C 82.5,2.5 81.5,2.5 80.5,2.5C 78.2188,2.07729 76.5521,2.74395 75.5,4.5C 74.1417,3.37437 72.8084,3.37437 71.5,4.5C 72.6119,5.26515 73.2786,6.26515 73.5,7.5C 72.4324,8.43448 71.099,8.76781 69.5,8.5C 70.3414,6.6208 70.6747,4.6208 70.5,2.5C 65.1667,2.5 59.8333,2.5 54.5,2.5C 49.8333,2.5 45.1667,2.5 40.5,2.5C 36.8333,2.5 33.1667,2.5 29.5,2.5C 29.1667,2.5 28.8333,2.5 28.5,2.5C 27.1667,2.5 25.8333,2.5 24.5,2.5C 22.8333,2.5 21.1667,2.5 19.5,2.5C 17.8333,2.5 16.1667,2.5 14.5,2.5C 11.5,2.5 8.5,2.5 5.5,2.5 Z"/></g>
<g><path style="opacity:1" fill="#772310" d="M 80.5,2.5 C 80.2381,4.5638 79.0714,5.89713 77,6.5C 76.7216,5.5842 76.2216,4.91753 75.5,4.5C 76.5521,2.74395 78.2188,2.07729 80.5,2.5 Z"/></g>
<g><path style="opacity:1" fill="#e2af52" d="M 90.5,2.5 C 90.5,2.16667 90.5,1.83333 90.5,1.5C 92.5,1.5 93.5,2.5 93.5,4.5C 93.1667,4.5 92.8333,4.5 92.5,4.5C 92.1667,3.5 91.5,2.83333 90.5,2.5 Z"/></g>
<g><path style="opacity:1" fill="#6d2511" d="M 54.5,2.5 C 59.8333,2.5 65.1667,2.5 70.5,2.5C 70.6747,4.6208 70.3414,6.6208 69.5,8.5C 68.8333,8.5 68.5,8.83333 68.5,9.5C 66.05,8.22347 63.7167,6.72347 61.5,5C 58.3307,4.02185 55.4973,4.52185 53,6.5C 52.7003,4.93434 53.2003,3.60101 54.5,2.5 Z"/></g>
<g><path style="opacity:1" fill="#c39640" d="M 75.5,4.5 C 75.573,6.02694 74.9063,7.02694 73.5,7.5C 73.2786,6.26515 72.6119,5.26515 71.5,4.5C 72.8084,3.37437 74.1417,3.37437 75.5,4.5 Z"/></g>
<g><path style="opacity:1" fill="#233833" d="M 5.5,2.5 C 8.5,2.5 11.5,2.5 14.5,2.5C 15.3158,6.40752 16.9825,7.07419 19.5,4.5C 19.427,6.02694 20.0937,7.02694 21.5,7.5C 23.0496,8.71994 24.7163,8.71994 26.5,7.5C 26.4607,9.22394 26.794,9.55728 27.5,8.5C 28.5,7.83333 29.5,7.16667 30.5,6.5C 34.4035,3.95782 38.2368,3.95782 42,6.5C 42.2997,4.93434 41.7997,3.60101 40.5,2.5C 45.1667,2.5 49.8333,2.5 54.5,2.5C 53.2003,3.60101 52.7003,4.93434 53,6.5C 55.4973,4.52185 58.3307,4.02185 61.5,5C 63.7167,6.72347 66.05,8.22347 68.5,9.5C 68.5476,10.5071 67.5476,10.8404 65.5,10.5C 63.9382,10.2671 62.6049,9.60048 61.5,8.5C 61.1667,7.16667 60.8333,7.16667 60.5,8.5C 59.316,6.59011 57.816,6.25677 56,7.5C 55.6911,9.51294 56.3577,9.84628 58,8.5C 58.4828,9.44802 58.6495,10.448 58.5,11.5C 55.7509,12.9992 52.0842,13.6659 47.5,13.5C 45.1667,13.3333 42.8333,13.1667 40.5,13C 41.9561,12.5774 42.4561,11.7441 42,10.5C 40.3005,11.4061 38.4672,11.7394 36.5,11.5C 36.3505,10.448 36.5172,9.44802 37,8.5C 37.8928,9.71118 38.7261,9.71118 39.5,8.5C 38.218,6.29572 36.5514,5.96238 34.5,7.5C 33.5084,7.32842 32.8417,7.66175 32.5,8.5C 31.2112,9.63661 30.2112,10.9699 29.5,12.5C 29.5,12.8333 29.5,13.1667 29.5,13.5C 28.1667,13.5 26.8333,13.5 25.5,13.5C 25.1667,13.5 24.8333,13.5 24.5,13.5C 20.9306,7.36042 16.7639,7.02709 12,12.5C 9.83683,11.232 7.67016,11.232 5.5,12.5C 2.90058,10.6143 1.90058,7.94761 2.5,4.5C 2.97306,3.09368 3.97306,2.42702 5.5,2.5 Z"/></g>
<g><path style="opacity:1" fill="#5c2211" d="M 24.5,2.5 C 25.8333,2.5 27.1667,2.5 28.5,2.5C 27.0474,3.82487 27.3808,4.6582 29.5,5C 28.1772,5.81595 27.5106,6.98261 27.5,8.5C 26.794,9.55728 26.4607,9.22394 26.5,7.5C 26.1583,6.66175 25.4916,6.32842 24.5,6.5C 24.5,5.16667 24.5,3.83333 24.5,2.5 Z"/></g>
<g><path style="opacity:1" fill="#b98f3e" d="M 21.5,7.5 C 20.0937,7.02694 19.427,6.02694 19.5,4.5C 20.7079,3.76589 22.0413,3.43255 23.5,3.5C 23.4621,5.63609 22.7954,6.96942 21.5,7.5 Z"/></g>
<g><path style="opacity:1" fill="#7b2611" d="M 14.5,2.5 C 16.1667,2.5 17.8333,2.5 19.5,2.5C 19.5,3.16667 19.5,3.83333 19.5,4.5C 16.9825,7.07419 15.3158,6.40752 14.5,2.5 Z"/></g>
<g><path style="opacity:1" fill="#9c2c13" d="M 28.5,2.5 C 28.8333,2.5 29.1667,2.5 29.5,2.5C 30.2341,3.70792 30.5674,5.04125 30.5,6.5C 29.5,7.16667 28.5,7.83333 27.5,8.5C 27.5106,6.98261 28.1772,5.81595 29.5,5C 27.3808,4.6582 27.0474,3.82487 28.5,2.5 Z"/></g>
<g><path style="opacity:1" fill="#362715" d="M 19.5,2.5 C 21.1667,2.5 22.8333,2.5 24.5,2.5C 24.5,3.83333 24.5,5.16667 24.5,6.5C 23.791,7.40397 22.791,7.73731 21.5,7.5C 22.7954,6.96942 23.4621,5.63609 23.5,3.5C 22.0413,3.43255 20.7079,3.76589 19.5,4.5C 19.5,3.83333 19.5,3.16667 19.5,2.5 Z"/></g>
<g><path style="opacity:1" fill="#65200f" d="M 29.5,2.5 C 33.1667,2.5 36.8333,2.5 40.5,2.5C 41.7997,3.60101 42.2997,4.93434 42,6.5C 38.2368,3.95782 34.4035,3.95782 30.5,6.5C 30.5674,5.04125 30.2341,3.70792 29.5,2.5 Z"/></g>
<g><path style="opacity:1" fill="#20403c" d="M 84.5,2.5 C 86.5,2.5 88.5,2.5 90.5,2.5C 91.5,2.83333 92.1667,3.5 92.5,4.5C 92.9746,7.08209 92.3079,9.08209 90.5,10.5C 90.5,9.83333 90.5,9.16667 90.5,8.5C 90.5,7.5 90.5,6.5 90.5,5.5C 89.0222,5.23798 87.6888,5.57131 86.5,6.5C 87.1667,6.83333 87.8333,7.16667 88.5,7.5C 87.6518,9.28282 86.3185,9.78282 84.5,9C 83.3947,6.87974 83.3947,4.71307 84.5,2.5 Z"/></g>
<g><path style="opacity:1" fill="#2a2a20" d="M 80.5,2.5 C 81.5,2.5 82.5,2.5 83.5,2.5C 80.0783,8.25575 81.745,10.7558 88.5,10C 89.0442,9.28281 89.7109,8.78281 90.5,8.5C 90.5,9.16667 90.5,9.83333 90.5,10.5C 90.9195,12.0936 91.5862,13.5936 92.5,15C 92.4301,15.7648 92.0967,16.2648 91.5,16.5C 90.237,11.815 87.4036,10.4816 83,12.5C 78.2361,7.02709 74.0694,7.36042 70.5,13.5C 70.1667,13.5 69.8333,13.5 69.5,13.5C 68.1667,13.5 66.8333,13.5 65.5,13.5C 65.5,13.1667 65.5,12.8333 65.5,12.5C 65.5,11.8333 65.5,11.1667 65.5,10.5C 67.5476,10.8404 68.5476,10.5071 68.5,9.5C 68.5,8.83333 68.8333,8.5 69.5,8.5C 71.099,8.76781 72.4324,8.43448 73.5,7.5C 74.9063,7.02694 75.573,6.02694 75.5,4.5C 76.2216,4.91753 76.7216,5.5842 77,6.5C 79.0714,5.89713 80.2381,4.5638 80.5,2.5 Z"/></g>
<g><path style="opacity:1" fill="#812710" d="M 10.5,4.5 C 11.1894,3.22641 12.0228,3.22641 13,4.5C 13.4859,9.99194 10.9859,11.8253 5.5,10C 3.65003,6.53406 4.65003,4.70072 8.5,4.5C 8.64945,5.55198 8.48278,6.55198 8,7.5C 7.34569,6.30441 6.84569,6.30441 6.5,7.5C 7.61974,9.5962 9.11974,9.92953 11,8.5C 11.765,6.93426 11.5983,5.60093 10.5,4.5 Z"/></g>
<g><path style="opacity:1" fill="#8a2810" d="M 83.5,2.5 C 83.8333,2.5 84.1667,2.5 84.5,2.5C 83.3947,4.71307 83.3947,6.87974 84.5,9C 86.3185,9.78282 87.6518,9.28282 88.5,7.5C 87.8333,7.16667 87.1667,6.83333 86.5,6.5C 87.6888,5.57131 89.0222,5.23798 90.5,5.5C 90.5,6.5 90.5,7.5 90.5,8.5C 89.7109,8.78281 89.0442,9.28281 88.5,10C 81.745,10.7558 80.0783,8.25575 83.5,2.5 Z"/></g>
<g><path style="opacity:1" fill="#39321b" d="M 3.5,0.5 C 3.5,0.166667 3.5,-0.166667 3.5,-0.5C 32.8333,-0.5 62.1667,-0.5 91.5,-0.5C 93.1667,0.5 94.5,1.83333 95.5,3.5C 95.5,48.5 95.5,93.5 95.5,138.5C 95.1667,138.5 94.8333,138.5 94.5,138.5C 94.8321,93.6636 94.4987,48.9969 93.5,4.5C 93.5,2.5 92.5,1.5 90.5,1.5C 61.6715,0.501966 32.6715,0.168632 3.5,0.5 Z"/></g>
<g><path style="opacity:1" fill="#38311c" d="M 3.5,0.5 C 2.39952,1.60486 1.73286,2.93819 1.5,4.5C 0.501265,48.9969 0.167931,93.6636 0.5,138.5C 0.166667,138.5 -0.166667,138.5 -0.5,138.5C -0.5,93.5 -0.5,48.5 -0.5,3.5C 0.236209,1.77055 1.56954,0.770553 3.5,0.5 Z"/></g>
<g><path style="opacity:1" fill="#4f442b" d="M 0.5,138.5 C 1.83333,139.167 2.83333,140.167 3.5,141.5C 1.5,141.5 0.5,140.5 0.5,138.5 Z"/></g>
<g><path style="opacity:1" fill="#eeb955" d="M 1.5,4.5 C 1.5,33.8333 1.5,63.1667 1.5,92.5C 1.17056,107.676 1.50389,122.676 2.5,137.5C 2.83333,138.5 3.5,139.167 4.5,139.5C 33.1667,140.833 61.8333,140.833 90.5,139.5C 91.5,139.167 92.1667,138.5 92.5,137.5C 93.4987,93.3365 93.8321,49.0031 93.5,4.5C 94.4987,48.9969 94.8321,93.6636 94.5,138.5C 93.1667,139.167 92.1667,140.167 91.5,141.5C 62.1667,141.5 32.8333,141.5 3.5,141.5C 2.83333,140.167 1.83333,139.167 0.5,138.5C 0.167931,93.6636 0.501265,48.9969 1.5,4.5 Z"/></g>
<g><path style="opacity:1" fill="#513c1e" d="M 24.5,134.5 C 25.6168,137.279 26.7834,137.612 28,135.5C 28.9147,136.328 29.5814,137.328 30,138.5C 30.4643,137.906 30.631,137.239 30.5,136.5C 31.791,136.263 32.791,136.596 33.5,137.5C 32.6236,137.369 31.9569,137.702 31.5,138.5C 34.4281,139.484 37.4281,139.817 40.5,139.5C 45.1667,139.5 49.8333,139.5 54.5,139.5C 58.3482,139.311 62.0149,139.311 65.5,139.5C 66.4776,139.023 67.3109,138.357 68,137.5C 68.3076,138.308 68.8076,138.975 69.5,139.5C 70.6256,138.192 70.6256,136.858 69.5,135.5C 71.2296,134.024 72.5629,134.358 73.5,136.5C 72.8333,136.833 72.1667,137.167 71.5,137.5C 72.8084,138.626 74.1417,138.626 75.5,137.5C 76.5521,139.256 78.2188,139.923 80.5,139.5C 81.791,139.737 82.791,139.404 83.5,138.5C 83.5,138.167 83.5,137.833 83.5,137.5C 85.4786,139.168 87.812,139.834 90.5,139.5C 61.8333,140.833 33.1667,140.833 4.5,139.5C 6.6208,139.675 8.6208,139.341 10.5,138.5C 10.5,139.167 10.8333,139.5 11.5,139.5C 12.5,139.5 13.5,139.5 14.5,139.5C 16.7812,139.923 18.4479,139.256 19.5,137.5C 20.8583,138.626 22.1916,138.626 23.5,137.5C 23.1543,136.304 22.6543,136.304 22,137.5C 21.4808,135.511 22.3141,134.511 24.5,134.5 Z"/></g>
<g><path style="opacity:1" fill="#7e2611" d="M 75.5,135.5 C 77.7488,136.08 79.4154,137.413 80.5,139.5C 78.2188,139.923 76.5521,139.256 75.5,137.5C 75.5,136.833 75.5,136.167 75.5,135.5 Z"/></g>
<g><path style="opacity:1" fill="#82240e" d="M 40.5,139.5 C 37.4281,139.817 34.4281,139.484 31.5,138.5C 31.9569,137.702 32.6236,137.369 33.5,137.5C 36.8691,139.192 39.7024,138.526 42,135.5C 42.2997,137.066 41.7997,138.399 40.5,139.5 Z"/></g>
<g><path style="opacity:1" fill="#7f2611" d="M 17.5,135.5 C 18.1667,136.167 18.8333,136.833 19.5,137.5C 18.4479,139.256 16.7812,139.923 14.5,139.5C 14.7706,137.57 15.7706,136.236 17.5,135.5 Z"/></g>
<g><path style="opacity:1" fill="#2c3227" d="M 81.5,129.5 C 84.5,130.833 87.5,130.833 90.5,129.5C 90.5,130.167 90.5,130.833 90.5,131.5C 89.8333,131.5 89.5,131.833 89.5,132.5C 85.6126,130.534 82.946,131.534 81.5,135.5C 81.4534,137.038 82.1201,138.038 83.5,138.5C 82.791,139.404 81.791,139.737 80.5,139.5C 79.4154,137.413 77.7488,136.08 75.5,135.5C 74.5,135.167 73.8333,134.5 73.5,133.5C 75.5273,133.662 77.5273,133.495 79.5,133C 80.8228,132.184 81.4894,131.017 81.5,129.5 Z"/></g>
<g><path style="opacity:1" fill="#bf8f3c" d="M 69.5,133.5 C 70.8333,133.5 72.1667,133.5 73.5,133.5C 73.8333,134.5 74.5,135.167 75.5,135.5C 75.5,136.167 75.5,136.833 75.5,137.5C 74.1417,138.626 72.8084,138.626 71.5,137.5C 72.1667,137.167 72.8333,136.833 73.5,136.5C 72.5629,134.358 71.2296,134.024 69.5,135.5C 68.4937,135.062 68.4937,134.396 69.5,133.5 Z"/></g>
<g><path style="opacity:1" fill="#7d2812" d="M 68.5,132.5 C 68.5,133.167 68.8333,133.5 69.5,133.5C 68.4937,134.396 68.4937,135.062 69.5,135.5C 70.6256,136.858 70.6256,138.192 69.5,139.5C 68.8076,138.975 68.3076,138.308 68,137.5C 67.3109,138.357 66.4776,139.023 65.5,139.5C 62.0149,139.311 58.3482,139.311 54.5,139.5C 53.2003,138.399 52.7003,137.066 53,135.5C 54.1824,137.357 55.849,138.357 58,138.5C 61.8651,137.134 65.3651,135.134 68.5,132.5 Z"/></g>
<g><path style="opacity:1" fill="#452816" d="M 16.5,133.5 C 18.1667,133.5 19.8333,133.5 21.5,133.5C 20.3995,134.605 19.7329,135.938 19.5,137.5C 18.8333,136.833 18.1667,136.167 17.5,135.5C 17.1667,134.833 16.8333,134.167 16.5,133.5 Z"/></g>
<g><path style="opacity:1" fill="#214541" d="M 90.5,131.5 C 92.3079,132.918 92.9746,134.918 92.5,137.5C 92.1667,138.5 91.5,139.167 90.5,139.5C 87.812,139.834 85.4786,139.168 83.5,137.5C 83.2133,132.505 84.8799,131.505 88.5,134.5C 88.1543,135.696 87.6543,135.696 87,134.5C 86.5172,135.448 86.3505,136.448 86.5,137.5C 90.2838,137.475 91.2838,135.808 89.5,132.5C 89.5,131.833 89.8333,131.5 90.5,131.5 Z"/></g>
<g><path style="opacity:1" fill="#983215" d="M 27.5,133.5 C 28.8333,134.167 29.8333,135.167 30.5,136.5C 30.631,137.239 30.4643,137.906 30,138.5C 29.5814,137.328 28.9147,136.328 28,135.5C 26.7834,137.612 25.6168,137.279 24.5,134.5C 24.8333,134.5 25.1667,134.5 25.5,134.5C 26.1667,134.167 26.8333,133.833 27.5,133.5 Z"/></g>
<g><path style="opacity:1" fill="#be913d" d="M 21.5,133.5 C 23.099,133.232 24.4324,133.566 25.5,134.5C 25.1667,134.5 24.8333,134.5 24.5,134.5C 22.3141,134.511 21.4808,135.511 22,137.5C 22.6543,136.304 23.1543,136.304 23.5,137.5C 22.1916,138.626 20.8583,138.626 19.5,137.5C 19.7329,135.938 20.3995,134.605 21.5,133.5 Z"/></g>
<g><path style="opacity:1" fill="#253933" d="M 4.5,129.5 C 7.20401,130.714 9.87067,130.714 12.5,129.5C 13.0256,131.23 14.0256,132.564 15.5,133.5C 15.8333,133.5 16.1667,133.5 16.5,133.5C 16.8333,134.167 17.1667,134.833 17.5,135.5C 15.7706,136.236 14.7706,137.57 14.5,139.5C 13.5,139.5 12.5,139.5 11.5,139.5C 14.6755,135.53 13.8421,132.863 9,131.5C 6.83725,131.495 5.33725,132.495 4.5,134.5C 5.46265,136.49 6.79599,136.823 8.5,135.5C 8.15431,134.304 7.65431,134.304 7,135.5C 6.69923,132.909 7.8659,132.075 10.5,133C 11.7525,134.828 11.7525,136.661 10.5,138.5C 8.6208,139.341 6.6208,139.675 4.5,139.5C 3.5,139.167 2.83333,138.5 2.5,137.5C 2.36511,134.583 3.03177,131.916 4.5,129.5 Z"/></g>
<g><path style="opacity:1" fill="#b18539" d="M 26.5,127.5 C 40.6766,127.171 54.6766,127.504 68.5,128.5C 65.1501,128.335 61.8168,128.502 58.5,129C 59.0442,129.717 59.7109,130.217 60.5,130.5C 60.5,131.833 60.5,133.167 60.5,134.5C 58.9902,135.728 57.4902,135.728 56,134.5C 55.6911,132.487 56.3577,132.154 58,133.5C 58.4828,132.552 58.6495,131.552 58.5,130.5C 56.1727,130.247 54.1727,130.914 52.5,132.5C 52.1667,132.333 51.8333,132.167 51.5,132C 52.5,131 53.5,130 54.5,129C 49.8452,128.501 45.1785,128.334 40.5,128.5C 38.1667,128.5 35.8333,128.5 33.5,128.5C 30.3467,128.843 28.0134,128.51 26.5,127.5 Z"/></g>
<g><path style="opacity:1" fill="#8a2910" d="M 11.5,139.5 C 10.8333,139.5 10.5,139.167 10.5,138.5C 11.7525,136.661 11.7525,134.828 10.5,133C 7.8659,132.075 6.69923,132.909 7,135.5C 7.65431,134.304 8.15431,134.304 8.5,135.5C 6.79599,136.823 5.46265,136.49 4.5,134.5C 5.33725,132.495 6.83725,131.495 9,131.5C 13.8421,132.863 14.6755,135.53 11.5,139.5 Z"/></g>
<g><path style="opacity:1" fill="#8a2911" d="M 89.5,132.5 C 91.2838,135.808 90.2838,137.475 86.5,137.5C 86.3505,136.448 86.5172,135.448 87,134.5C 87.6543,135.696 88.1543,135.696 88.5,134.5C 84.8799,131.505 83.2133,132.505 83.5,137.5C 83.5,137.833 83.5,138.167 83.5,138.5C 82.1201,138.038 81.4534,137.038 81.5,135.5C 82.946,131.534 85.6126,130.534 89.5,132.5 Z"/></g>
<g><path style="opacity:1" fill="#2e2b1c" d="M 23.5,121.5 C 24.9348,122.913 25.9348,124.58 26.5,126.5C 26.5,126.833 26.5,127.167 26.5,127.5C 28.0134,128.51 30.3467,128.843 33.5,128.5C 31.7809,129.022 30.4475,130.022 29.5,131.5C 27.6685,128.748 26.0019,128.914 24.5,132C 25.7375,132.232 26.7375,132.732 27.5,133.5C 26.8333,133.833 26.1667,134.167 25.5,134.5C 24.4324,133.566 23.099,133.232 21.5,133.5C 24.6664,130.017 25.3331,126.017 23.5,121.5 Z"/></g>
<g><path style="opacity:1" fill="#673217" d="M 33.5,128.5 C 35.8333,128.5 38.1667,128.5 40.5,128.5C 41.7997,129.601 42.2997,130.934 42,132.5C 40.8904,130.963 39.3904,130.297 37.5,130.5C 36.6522,129.375 35.6522,129.375 34.5,130.5C 33.5076,134.151 31.8409,134.484 29.5,131.5C 30.4475,130.022 31.7809,129.022 33.5,128.5 Z"/></g>
<g><path style="opacity:1" fill="#9c2f13" d="M 17.5,122.5 C 19.5138,122.392 21.1805,123.058 22.5,124.5C 22.4828,126.565 22.1495,128.565 21.5,130.5C 19.3469,131.573 17.3469,131.573 15.5,130.5C 15.5,129.5 15.5,128.5 15.5,127.5C 17.2962,126.234 17.6295,126.568 16.5,128.5C 19.5903,129.914 20.757,128.914 20,125.5C 18.955,124.627 18.1217,123.627 17.5,122.5 Z"/></g>
<g><path style="opacity:1" fill="#89692e" d="M 12.5,129.5 C 12.8333,129.5 13.1667,129.5 13.5,129.5C 14.1667,129.833 14.8333,130.167 15.5,130.5C 17.3469,131.573 19.3469,131.573 21.5,130.5C 19.7512,131.985 17.7512,132.985 15.5,133.5C 14.0256,132.564 13.0256,131.23 12.5,129.5 Z"/></g>
<g><path style="opacity:1" fill="#28281c" d="M 68.5,128.5 C 69.1667,128.5 69.8333,128.5 70.5,128.5C 71.075,130.411 72.075,132.078 73.5,133.5C 72.1667,133.5 70.8333,133.5 69.5,133.5C 68.8333,133.5 68.5,133.167 68.5,132.5C 70.6288,131.9 70.4621,130.9 68,129.5C 66.2382,129.944 66.4049,130.444 68.5,131C 67.552,131.483 66.552,131.649 65.5,131.5C 65.2089,130.351 64.3756,129.684 63,129.5C 61.9302,129.528 61.0968,129.861 60.5,130.5C 59.7109,130.217 59.0442,129.717 58.5,129C 61.8168,128.502 65.1501,128.335 68.5,128.5 Z"/></g>
<g><path style="opacity:1" fill="#263931" d="M 40.5,128.5 C 45.1785,128.334 49.8452,128.501 54.5,129C 53.5,130 52.5,131 51.5,132C 51.8333,132.167 52.1667,132.333 52.5,132.5C 54.1727,130.914 56.1727,130.247 58.5,130.5C 58.6495,131.552 58.4828,132.552 58,133.5C 56.3577,132.154 55.6911,132.487 56,134.5C 57.4902,135.728 58.9902,135.728 60.5,134.5C 62.4044,134.262 63.7377,133.262 64.5,131.5C 64.8333,131.5 65.1667,131.5 65.5,131.5C 66.552,131.649 67.552,131.483 68.5,131C 66.4049,130.444 66.2382,129.944 68,129.5C 70.4621,130.9 70.6288,131.9 68.5,132.5C 65.3651,135.134 61.8651,137.134 58,138.5C 55.849,138.357 54.1824,137.357 53,135.5C 52.7003,137.066 53.2003,138.399 54.5,139.5C 49.8333,139.5 45.1667,139.5 40.5,139.5C 41.7997,138.399 42.2997,137.066 42,135.5C 39.7024,138.526 36.8691,139.192 33.5,137.5C 32.791,136.596 31.791,136.263 30.5,136.5C 29.8333,135.167 28.8333,134.167 27.5,133.5C 26.7375,132.732 25.7375,132.232 24.5,132C 26.0019,128.914 27.6685,128.748 29.5,131.5C 31.8409,134.484 33.5076,134.151 34.5,130.5C 34.2133,135.495 35.8799,136.495 39.5,133.5C 38.7261,132.289 37.8928,132.289 37,133.5C 36.2599,132.251 36.4265,131.251 37.5,130.5C 39.3904,130.297 40.8904,130.963 42,132.5C 42.2997,130.934 41.7997,129.601 40.5,128.5 Z"/></g>
<g><path style="opacity:1" fill="#967131" d="M 46.5,130.5 C 52.532,132.544 52.8653,135.21 47.5,138.5C 42.6907,136.257 42.3574,133.591 46.5,130.5 Z"/></g>
<g><path style="opacity:1" fill="#542412" d="M 60.5,130.5 C 61.8333,130.833 63.1667,131.167 64.5,131.5C 63.7377,133.262 62.4044,134.262 60.5,134.5C 60.5,133.167 60.5,131.833 60.5,130.5 Z"/></g>
<g><path style="opacity:1" fill="#bc903d" d="M 37.5,130.5 C 36.4265,131.251 36.2599,132.251 37,133.5C 37.8928,132.289 38.7261,132.289 39.5,133.5C 35.8799,136.495 34.2133,135.495 34.5,130.5C 35.6522,129.375 36.6522,129.375 37.5,130.5 Z"/></g>
<g><path style="opacity:1" fill="#922c13" d="M 60.5,130.5 C 61.0968,129.861 61.9302,129.528 63,129.5C 64.3756,129.684 65.2089,130.351 65.5,131.5C 65.1667,131.5 64.8333,131.5 64.5,131.5C 63.1667,131.167 61.8333,130.833 60.5,130.5 Z"/></g>
<g><path style="opacity:1" fill="#7b6630" d="M 70.5,122.5 C 70.5,124.5 70.5,126.5 70.5,128.5C 69.8333,128.5 69.1667,128.5 68.5,128.5C 54.6766,127.504 40.6766,127.171 26.5,127.5C 26.5,127.167 26.5,126.833 26.5,126.5C 40.8333,126.5 55.1667,126.5 69.5,126.5C 69.2322,124.901 69.5655,123.568 70.5,122.5 Z"/></g>
<g><path style="opacity:1" fill="#40301a" d="M 89.5,118.5 C 90.5,119.167 91.5,119.833 92.5,120.5C 92.6641,123.187 92.4974,125.854 92,128.5C 91.6174,129.056 91.1174,129.389 90.5,129.5C 92.0158,125.615 91.6825,121.948 89.5,118.5 Z"/></g>
<g><path style="opacity:1" fill="#4d351a" d="M 72.5,119.5 C 72.573,121.027 71.9063,122.027 70.5,122.5C 70.427,120.973 71.0937,119.973 72.5,119.5 Z"/></g>
<g><path style="opacity:1" fill="#a23116" d="M 72.5,119.5 C 71.0937,119.973 70.427,120.973 70.5,122.5C 69.5655,123.568 69.2322,124.901 69.5,126.5C 55.1667,126.5 40.8333,126.5 26.5,126.5C 25.9348,124.58 24.9348,122.913 23.5,121.5C 23.6716,120.508 23.3382,119.842 22.5,119.5C 30.4722,118.169 38.8055,117.502 47.5,117.5C 56.1945,117.502 64.5278,118.169 72.5,119.5 Z"/></g>
<g><path style="opacity:1" fill="#d29066" d="M 53.5,118.5 C 55.0174,118.511 56.1841,119.177 57,120.5C 58.3946,119.185 59.3946,119.519 60,121.5C 60.7253,119.842 61.892,119.342 63.5,120C 62.7948,121.557 63.4615,122.723 65.5,123.5C 65.8333,123.333 66.1667,123.167 66.5,123C 64.4407,121.815 64.274,120.648 66,119.5C 66.1466,120.603 66.98,121.77 68.5,123C 64.7161,124.366 60.8828,124.866 57,124.5C 55.9826,121.972 54.8159,121.972 53.5,124.5C 52.3058,122.484 52.3058,120.484 53.5,118.5 Z"/></g>
<g><path style="opacity:1" fill="#dbad80" d="M 36.5,119.5 C 38.5622,120.505 39.3955,122.171 39,124.5C 38,123.167 37,123.167 36,124.5C 35.6155,122.803 35.7822,121.137 36.5,119.5 Z"/></g>
<g><path style="opacity:1" fill="#d8a378" d="M 27.5,119.5 C 29.3307,120.052 30.9974,120.052 32.5,119.5C 33.2436,120.991 33.9103,122.491 34.5,124C 33.552,124.483 32.552,124.649 31.5,124.5C 31.239,121.085 30.0723,121.085 28,124.5C 27.5065,122.866 27.3398,121.199 27.5,119.5 Z"/></g>
<g><path style="opacity:1" fill="#d08f66" d="M 45.5,119.5 C 51.641,121.058 51.8077,122.725 46,124.5C 44.2116,122.977 44.0449,121.31 45.5,119.5 Z"/></g>
<g><path style="opacity:1" fill="#d59b6f" d="M 39.5,120.5 C 40.6009,119.402 41.9343,119.235 43.5,120C 42.9103,121.509 42.2436,123.009 41.5,124.5C 40.8281,123.051 40.1614,121.718 39.5,120.5 Z"/></g>
<g><path style="opacity:1" fill="#8a2611" d="M 92.5,117.5 C 92.5,118.5 92.5,119.5 92.5,120.5C 91.5,119.833 90.5,119.167 89.5,118.5C 89.369,117.761 89.5357,117.094 90,116.5C 90.6708,117.252 91.5041,117.586 92.5,117.5 Z"/></g>
<g><path style="opacity:1" fill="#c19540" d="M 81.5,114.5 C 82.5137,115.674 83.847,116.34 85.5,116.5C 86.5137,117.674 87.847,118.34 89.5,118.5C 91.6825,121.948 92.0158,125.615 90.5,129.5C 87.5,130.833 84.5,130.833 81.5,129.5C 81.4894,131.017 80.8228,132.184 79.5,133C 77.5273,133.495 75.5273,133.662 73.5,133.5C 72.075,132.078 71.075,130.411 70.5,128.5C 70.5,126.5 70.5,124.5 70.5,122.5C 71.9063,122.027 72.573,121.027 72.5,119.5C 75.2295,116.845 75.8962,113.845 74.5,110.5C 74.5,108.833 74.5,107.167 74.5,105.5C 75.7942,104.71 76.9609,103.71 78,102.5C 76.717,105.242 76.3836,108.242 77,111.5C 78.129,113.141 79.629,114.141 81.5,114.5 Z"/></g>
<g><path style="opacity:1" fill="#613317" d="M 82.5,127.5 C 84.5,127.5 86.5,127.5 88.5,127.5C 86.594,129.994 84.594,129.994 82.5,127.5 Z"/></g>
<g><path style="opacity:1" fill="#584321" d="M 72.5,124.5 C 72.5172,126.565 72.8505,128.565 73.5,130.5C 72.0532,129.866 71.3866,128.699 71.5,127C 71.528,125.93 71.8614,125.097 72.5,124.5 Z"/></g>
<g><path style="opacity:1" fill="#4e2815" d="M 75.5,119.5 C 75.573,121.027 74.9063,122.027 73.5,122.5C 73.427,120.973 74.0937,119.973 75.5,119.5 Z"/></g>
<g><path style="opacity:1" fill="#512f17" d="M 81.5,117.5 C 84.089,117.461 86.089,118.461 87.5,120.5C 85.1815,120.008 83.1815,119.008 81.5,117.5 Z"/></g>
<g><path style="opacity:1" fill="#482012" d="M 90.5,106.5 C 90.8333,106.5 91.1667,106.5 91.5,106.5C 92.4816,109.962 92.815,113.629 92.5,117.5C 91.5041,117.586 90.6708,117.252 90,116.5C 89.5357,117.094 89.369,117.761 89.5,118.5C 87.847,118.34 86.5137,117.674 85.5,116.5C 88.089,116.539 90.089,115.539 91.5,113.5C 91.7475,111.142 91.0808,109.142 89.5,107.5C 90.1667,107.5 90.5,107.167 90.5,106.5 Z"/></g>
<g><path style="opacity:1" fill="#4a3118" d="M 78.5,115.5 C 80.0269,115.427 81.0269,116.094 81.5,117.5C 79.9731,117.573 78.9731,116.906 78.5,115.5 Z"/></g>
<g><path style="opacity:1" fill="#9f2f14" d="M 78.5,115.5 C 78.9731,116.906 79.9731,117.573 81.5,117.5C 83.1815,119.008 85.1815,120.008 87.5,120.5C 88.9931,121.312 89.6598,122.645 89.5,124.5C 89.4805,125.726 89.1471,126.726 88.5,127.5C 86.5,127.5 84.5,127.5 82.5,127.5C 81.6618,127.842 81.3284,128.508 81.5,129.5C 78.9658,131.592 76.2992,131.926 73.5,130.5C 72.8505,128.565 72.5172,126.565 72.5,124.5C 72.3284,123.508 72.6618,122.842 73.5,122.5C 74.9063,122.027 75.573,121.027 75.5,119.5C 75.3284,118.508 75.6618,117.842 76.5,117.5C 77.1667,116.833 77.8333,116.167 78.5,115.5 Z"/></g>
<g><path style="opacity:1" fill="#41311a" d="M 20.5,110.5 C 20.178,112.722 20.8446,114.556 22.5,116C 39.1667,116.667 55.8333,116.667 72.5,116C 74.1554,114.556 74.822,112.722 74.5,110.5C 75.8962,113.845 75.2295,116.845 72.5,119.5C 64.5278,118.169 56.1945,117.502 47.5,117.5C 38.8055,117.502 30.4722,118.169 22.5,119.5C 19.5762,116.944 18.9095,113.944 20.5,110.5 Z"/></g>
<g><path style="opacity:1" fill="#422715" d="M 78.5,115.5 C 77.8333,116.167 77.1667,116.833 76.5,117.5C 76.281,116.325 76.6143,115.325 77.5,114.5C 78.1067,114.624 78.44,114.957 78.5,115.5 Z"/></g>
<g><path style="opacity:1" fill="#deac4b" d="M 22.5,111.5 C 21.2848,112.779 21.6182,113.779 23.5,114.5C 39.5,115.833 55.5,115.833 71.5,114.5C 72.9118,112.77 72.5785,111.27 70.5,110C 71.9285,109.421 73.2618,109.588 74.5,110.5C 74.822,112.722 74.1554,114.556 72.5,116C 55.8333,116.667 39.1667,116.667 22.5,116C 20.8446,114.556 20.178,112.722 20.5,110.5C 21.7382,109.588 23.0715,109.421 24.5,110C 23.5842,110.278 22.9175,110.778 22.5,111.5 Z"/></g>
<g><path style="opacity:1" fill="#3f1b0f" d="M 3.5,106.5 C 4.5,106.5 5.5,106.5 6.5,106.5C 7.16667,106.5 7.5,106.833 7.5,107.5C 3.53587,108.922 2.53587,111.589 4.5,115.5C 3.83333,116.167 3.16667,116.833 2.5,117.5C 2.18503,113.629 2.51836,109.962 3.5,106.5 Z"/></g>
<g><path style="opacity:1" fill="#594823" d="M 64.5,114.5 C 65.8333,114.5 67.1667,114.5 68.5,114.5C 69.5,114.5 70.5,114.5 71.5,114.5C 55.5,115.833 39.5,115.833 23.5,114.5C 24.5,114.5 25.5,114.5 26.5,114.5C 27.8333,114.5 29.1667,114.5 30.5,114.5C 33.5,114.5 36.5,114.5 39.5,114.5C 40.1667,114.5 40.8333,114.5 41.5,114.5C 45.1667,114.5 48.8333,114.5 52.5,114.5C 56.5,113.167 60.5,113.167 64.5,114.5 Z"/></g>
<g><path style="opacity:1" fill="#5b4623" d="M 2.5,88.5 C 3.47784,88.811 4.14451,89.4777 4.5,90.5C 1.98305,94.1293 1.98305,97.796 4.5,101.5C 2.27098,102.034 1.93765,103.701 3.5,106.5C 2.51836,109.962 2.18503,113.629 2.5,117.5C 2.67796,121.102 3.67796,121.102 5.5,117.5C 5.13727,116.817 4.80393,116.15 4.5,115.5C 6.11723,116.038 7.7839,116.371 9.5,116.5C 7.56303,117.931 5.72969,119.598 4,121.5C 3.39845,124.221 3.56512,126.887 4.5,129.5C 3.03177,131.916 2.36511,134.583 2.5,137.5C 1.50389,122.676 1.17056,107.676 1.5,92.5C 2.43448,91.4324 2.76781,90.099 2.5,88.5 Z"/></g>
<g><path style="opacity:1" fill="#852711" d="M 4.5,115.5 C 4.80393,116.15 5.13727,116.817 5.5,117.5C 3.67796,121.102 2.67796,121.102 2.5,117.5C 3.16667,116.833 3.83333,116.167 4.5,115.5 Z"/></g>
<g><path style="opacity:1" fill="#8e2812" d="M 71.5,114.5 C 70.5,114.5 69.5,114.5 68.5,114.5C 67.8902,113.609 67.5569,112.609 67.5,111.5C 68.3719,111.937 69.5386,111.937 71,111.5C 71.4828,112.448 71.6495,113.448 71.5,114.5 Z"/></g>
<g><path style="opacity:1" fill="#33170e" d="M 32.5,112.5 C 34.8333,113.167 37.1667,113.833 39.5,114.5C 36.5,114.5 33.5,114.5 30.5,114.5C 30.8333,113.5 31.5,112.833 32.5,112.5 Z"/></g>
<g><path style="opacity:1" fill="#bf933f" d="M 15.5,102.5 C 17.4044,102.738 18.7377,103.738 19.5,105.5C 20.3007,107.042 20.634,108.708 20.5,110.5C 18.9095,113.944 19.5762,116.944 22.5,119.5C 23.3382,119.842 23.6716,120.508 23.5,121.5C 25.3331,126.017 24.6664,130.017 21.5,133.5C 19.8333,133.5 18.1667,133.5 16.5,133.5C 16.1667,133.5 15.8333,133.5 15.5,133.5C 17.7512,132.985 19.7512,131.985 21.5,130.5C 22.9468,129.866 23.6134,128.699 23.5,127C 23.472,125.93 23.1386,125.097 22.5,124.5C 20.8554,121.211 19.1888,117.878 17.5,114.5C 14.567,116.462 11.567,118.129 8.5,119.5C 5.48278,121.615 4.81611,124.282 6.5,127.5C 8.44953,129.952 10.6162,129.952 13,127.5C 13.4643,128.094 13.631,128.761 13.5,129.5C 13.1667,129.5 12.8333,129.5 12.5,129.5C 9.87067,130.714 7.20401,130.714 4.5,129.5C 3.56512,126.887 3.39845,124.221 4,121.5C 5.72969,119.598 7.56303,117.931 9.5,116.5C 11.153,116.34 12.4863,115.674 13.5,114.5C 19.3409,111.456 20.0075,107.456 15.5,102.5 Z"/></g>
<g><path style="opacity:1" fill="#59341a" d="M 11.5,124.5 C 12.5261,125.853 13.8595,126.853 15.5,127.5C 15.5,128.5 15.5,129.5 15.5,130.5C 14.8333,130.167 14.1667,129.833 13.5,129.5C 13.631,128.761 13.4643,128.094 13,127.5C 10.6162,129.952 8.44953,129.952 6.5,127.5C 8.16667,127.5 9.83333,127.5 11.5,127.5C 11.5,126.5 11.5,125.5 11.5,124.5 Z"/></g>
<g><path style="opacity:1" fill="#604b24" d="M 22.5,124.5 C 23.1386,125.097 23.472,125.93 23.5,127C 23.6134,128.699 22.9468,129.866 21.5,130.5C 22.1495,128.565 22.4828,126.565 22.5,124.5 Z"/></g>
<g><path style="opacity:1" fill="#292f25" d="M 12.5,119.5 C 13.9432,120.335 14.9432,121.668 15.5,123.5C 16.1835,123.137 16.8501,122.804 17.5,122.5C 18.1217,123.627 18.955,124.627 20,125.5C 20.757,128.914 19.5903,129.914 16.5,128.5C 17.6295,126.568 17.2962,126.234 15.5,127.5C 13.8595,126.853 12.5261,125.853 11.5,124.5C 9.91215,127.218 8.57882,127.052 7.5,124C 8.68685,121.41 10.5202,120.91 13,122.5C 13.4696,121.423 13.3029,120.423 12.5,119.5 Z"/></g>
<g><path style="opacity:1" fill="#8e2e13" d="M 8.5,119.5 C 9.83333,119.5 11.1667,119.5 12.5,119.5C 13.3029,120.423 13.4696,121.423 13,122.5C 10.5202,120.91 8.68685,121.41 7.5,124C 8.57882,127.052 9.91215,127.218 11.5,124.5C 11.5,125.5 11.5,126.5 11.5,127.5C 9.83333,127.5 8.16667,127.5 6.5,127.5C 4.81611,124.282 5.48278,121.615 8.5,119.5 Z"/></g>
<g><path style="opacity:1" fill="#24403b" d="M 22.5,124.5 C 21.1805,123.058 19.5138,122.392 17.5,122.5C 16.8501,122.804 16.1835,123.137 15.5,123.5C 14.9432,121.668 13.9432,120.335 12.5,119.5C 11.1667,119.5 9.83333,119.5 8.5,119.5C 11.567,118.129 14.567,116.462 17.5,114.5C 19.1888,117.878 20.8554,121.211 22.5,124.5 Z"/></g>
<g><path style="opacity:1" fill="#244540" d="M 90.5,106.5 C 90.5,107.167 90.1667,107.5 89.5,107.5C 86.0504,106.756 84.3838,108.09 84.5,111.5C 86.143,111.52 87.4763,110.853 88.5,109.5C 89.1067,109.624 89.44,109.957 89.5,110.5C 89.5,111.833 89.5,113.167 89.5,114.5C 83.3261,115.827 81.1594,113.494 83,107.5C 84.3782,105.787 86.0448,104.453 88,103.5C 88.2355,105.119 89.0689,106.119 90.5,106.5 Z"/></g>
<g><path style="opacity:1" fill="#8c2a12" d="M 40.5,102.5 C 41.5,102.833 42.1667,103.5 42.5,104.5C 42.6014,108.575 40.6014,111.075 36.5,112C 38.744,112.05 40.4107,112.883 41.5,114.5C 40.8333,114.5 40.1667,114.5 39.5,114.5C 37.1667,113.833 34.8333,113.167 32.5,112.5C 37.5723,110.966 39.2389,107.8 37.5,103C 38.448,102.517 39.448,102.351 40.5,102.5 Z"/></g>
<g><path style="opacity:1" fill="#792a13" d="M 27.5,109.5 C 27.5,109.833 27.5,110.167 27.5,110.5C 27.5674,111.959 27.2341,113.292 26.5,114.5C 25.5,114.5 24.5,114.5 23.5,114.5C 21.6182,113.779 21.2848,112.779 22.5,111.5C 23.4959,111.414 24.3292,111.748 25,112.5C 25.2355,110.881 26.0689,109.881 27.5,109.5 Z"/></g>
<g><path style="opacity:1" fill="#3c2c19" d="M 65.5,103.5 C 66.404,104.209 66.7373,105.209 66.5,106.5C 67.8333,106.5 69.1667,106.5 70.5,106.5C 69.0484,107.302 67.3817,107.802 65.5,108C 66.5,108.167 67.5,108.333 68.5,108.5C 70.3545,108.66 71.6879,107.993 72.5,106.5C 73.1667,106.167 73.8333,105.833 74.5,105.5C 74.5,107.167 74.5,108.833 74.5,110.5C 73.2618,109.588 71.9285,109.421 70.5,110C 72.5785,111.27 72.9118,112.77 71.5,114.5C 71.6495,113.448 71.4828,112.448 71,111.5C 69.5386,111.937 68.3719,111.937 67.5,111.5C 66.209,111.737 65.209,111.404 64.5,110.5C 65.2389,110.631 65.9056,110.464 66.5,110C 64.36,109.027 62.6933,107.527 61.5,105.5C 62.5,102.833 63.5,102.833 64.5,105.5C 65.2975,105.043 65.6309,104.376 65.5,103.5 Z"/></g>
<g><path style="opacity:1" fill="#302c1c" d="M 27.5,109.5 C 26.0689,109.881 25.2355,110.881 25,112.5C 24.3292,111.748 23.4959,111.414 22.5,111.5C 22.9175,110.778 23.5842,110.278 24.5,110C 23.0715,109.421 21.7382,109.588 20.5,110.5C 20.634,108.708 20.3007,107.042 19.5,105.5C 19.8333,105.5 20.1667,105.5 20.5,105.5C 22.5586,108.149 25.2253,108.982 28.5,108C 26.9419,107.79 25.6085,107.29 24.5,106.5C 26.099,106.768 27.4324,106.434 28.5,105.5C 30.4988,106.857 31.6655,106.19 32,103.5C 33.8355,105.727 33.3355,107.56 30.5,109C 29.552,109.483 28.552,109.649 27.5,109.5 Z"/></g>
<g><path style="opacity:1" fill="#a52e13" d="M 89.5,107.5 C 91.0808,109.142 91.7475,111.142 91.5,113.5C 90.8333,112.5 90.1667,111.5 89.5,110.5C 89.44,109.957 89.1067,109.624 88.5,109.5C 87.4763,110.853 86.143,111.52 84.5,111.5C 84.3838,108.09 86.0504,106.756 89.5,107.5 Z"/></g>
<g><path style="opacity:1" fill="#a77f36" d="M 70.5,106.5 C 71.1667,106.5 71.8333,106.5 72.5,106.5C 71.6879,107.993 70.3545,108.66 68.5,108.5C 67.5,108.333 66.5,108.167 65.5,108C 67.3817,107.802 69.0484,107.302 70.5,106.5 Z"/></g>
<g><path style="opacity:1" fill="#4d2312" d="M 79.5,105.5 C 80.2312,105.942 81.2312,106.109 82.5,106C 81.9341,106.995 81.2674,107.828 80.5,108.5C 79.9094,107.849 79.2427,107.182 78.5,106.5C 78.6236,105.893 78.9569,105.56 79.5,105.5 Z"/></g>
<g><path style="opacity:1" fill="#2a342c" d="M 15.5,102.5 C 20.0075,107.456 19.3409,111.456 13.5,114.5C 14.6716,112.156 14.6716,109.823 13.5,107.5C 16.028,106.483 16.028,105.316 13.5,104C 14.0442,103.283 14.7109,102.783 15.5,102.5 Z"/></g>
<g><path style="opacity:1" fill="#29413b" d="M 7.5,107.5 C 7.5,106.833 7.16667,106.5 6.5,106.5C 6.12528,103.093 7.12528,102.593 9.5,105C 12.5236,107.475 13.1903,110.475 11.5,114C 9.5,114.667 7.5,114.667 5.5,114C 4.07047,112.12 4.4038,110.62 6.5,109.5C 7.80863,111.891 8.80863,111.891 9.5,109.5C 9.25284,108.287 8.58617,107.62 7.5,107.5 Z"/></g>
<g><path style="opacity:1" fill="#8a2912" d="M 54.5,102.5 C 55.552,102.351 56.552,102.517 57.5,103C 56.4238,104.726 56.2571,106.559 57,108.5C 59.4784,110.639 61.9784,112.639 64.5,114.5C 60.5,113.167 56.5,113.167 52.5,114.5C 54.0261,112.87 56.0261,112.037 58.5,112C 54.3986,111.075 52.3986,108.575 52.5,104.5C 52.8333,103.5 53.5,102.833 54.5,102.5 Z"/></g>
<g><path style="opacity:1" fill="#902c13" d="M 85.5,91.5 C 84.3192,93.0672 82.6526,93.9005 80.5,94C 79.1667,96.3333 79.1667,98.6667 80.5,101C 82.0657,101.765 83.3991,101.598 84.5,100.5C 85.1667,100.5 85.8333,100.5 86.5,100.5C 86.369,101.239 86.5357,101.906 87,102.5C 88.0391,101.29 89.2058,100.29 90.5,99.5C 89.6765,101.455 89.5099,103.455 90,105.5C 92.3169,100.335 92.8169,100.668 91.5,106.5C 91.1667,106.5 90.8333,106.5 90.5,106.5C 89.0689,106.119 88.2355,105.119 88,103.5C 86.0448,104.453 84.3782,105.787 83,107.5C 81.1594,113.494 83.3261,115.827 89.5,114.5C 89.5,113.167 89.5,111.833 89.5,110.5C 90.1667,111.5 90.8333,112.5 91.5,113.5C 90.089,115.539 88.089,116.539 85.5,116.5C 83.847,116.34 82.5137,115.674 81.5,114.5C 80.6586,112.621 80.3253,110.621 80.5,108.5C 81.2674,107.828 81.9341,106.995 82.5,106C 81.2312,106.109 80.2312,105.942 79.5,105.5C 79.9175,104.778 80.5842,104.278 81.5,104C 79.9586,102.629 78.6253,101.129 77.5,99.5C 77.5,98.1667 77.5,96.8333 77.5,95.5C 77.8333,94.8333 78.1667,94.1667 78.5,93.5C 79.8333,92.8333 80.8333,91.8333 81.5,90.5C 82.29,89.3915 82.79,88.0581 83,86.5C 83.3333,88.1667 83.6667,89.8333 84,91.5C 84.7792,88.9028 85.2792,88.9028 85.5,91.5 Z"/></g>
<g><path style="opacity:1" fill="#624c26" d="M 92.5,4.5 C 92.8333,4.5 93.1667,4.5 93.5,4.5C 93.8321,49.0031 93.4987,93.3365 92.5,137.5C 92.9746,134.918 92.3079,132.918 90.5,131.5C 90.5,130.833 90.5,130.167 90.5,129.5C 91.1174,129.389 91.6174,129.056 92,128.5C 92.4974,125.854 92.6641,123.187 92.5,120.5C 92.5,119.5 92.5,118.5 92.5,117.5C 92.815,113.629 92.4816,109.962 91.5,106.5C 92.8169,100.668 92.3169,100.335 90,105.5C 89.5099,103.455 89.6765,101.455 90.5,99.5C 92.0739,97.8984 92.7406,95.8984 92.5,93.5C 92.5,91.8333 92.5,90.1667 92.5,88.5C 92.5,87.1667 91.8333,86.5 90.5,86.5C 91.3007,84.9582 91.634,83.2915 91.5,81.5C 92.4614,79.7354 92.7947,77.7354 92.5,75.5C 92.5,72.5 92.5,69.5 92.5,66.5C 92.5,64.5 92.5,62.5 92.5,60.5C 92.1075,58.7162 91.4408,57.0495 90.5,55.5C 91.8333,55.5 92.5,54.8333 92.5,53.5C 92.5,51.8333 92.5,50.1667 92.5,48.5C 92.5,46.1667 92.5,43.8333 92.5,41.5C 92.5,40.1667 92.5,38.8333 92.5,37.5C 92.5,33.1667 92.5,28.8333 92.5,24.5C 92.5,23.1667 91.8333,22.5 90.5,22.5C 91.3414,20.6208 91.6747,18.6208 91.5,16.5C 92.0967,16.2648 92.4301,15.7648 92.5,15C 91.5862,13.5936 90.9195,12.0936 90.5,10.5C 92.3079,9.08209 92.9746,7.08209 92.5,4.5 Z"/></g>
<g><path style="opacity:1" fill="#ac8338" d="M 69.5,100.5 C 73.5,99.8333 75.1667,101.5 74.5,105.5C 73.8333,105.833 73.1667,106.167 72.5,106.5C 72.762,105.022 72.4287,103.689 71.5,102.5C 68.7978,103.798 68.1311,103.131 69.5,100.5 Z"/></g>
<g><path style="opacity:1" fill="#c69741" d="M 65.5,103.5 C 65.6309,104.376 65.2975,105.043 64.5,105.5C 63.5,102.833 62.5,102.833 61.5,105.5C 62.6933,107.527 64.36,109.027 66.5,110C 65.9056,110.464 65.2389,110.631 64.5,110.5C 60.9509,109.043 59.7842,106.377 61,102.5C 62.9151,101.084 64.4151,101.418 65.5,103.5 Z"/></g>
<g><path style="opacity:1" fill="#c3943f" d="M 27.5,110.5 C 27.5,110.167 27.5,109.833 27.5,109.5C 28.552,109.649 29.552,109.483 30.5,109C 33.3355,107.56 33.8355,105.727 32,103.5C 31.6655,106.19 30.4988,106.857 28.5,105.5C 29.109,102.034 30.9423,101.034 34,102.5C 35.324,108.009 33.1573,110.676 27.5,110.5 Z"/></g>
<g><path style="opacity:1" fill="#aa8137" d="M 25.5,100.5 C 25.8808,102.942 25.2141,103.609 23.5,102.5C 22.1908,104.24 22.5241,105.573 24.5,106.5C 25.6085,107.29 26.9419,107.79 28.5,108C 25.2253,108.982 22.5586,108.149 20.5,105.5C 19.8333,101.5 21.5,99.8333 25.5,100.5 Z"/></g>
<g><path style="opacity:1" fill="#255856" d="M 45.5,91.5 C 45.4395,96.2973 44.4395,100.631 42.5,104.5C 42.1667,103.5 41.5,102.833 40.5,102.5C 39.9094,101.849 39.2427,101.182 38.5,100.5C 39.3299,97.9836 40.3299,95.6502 41.5,93.5C 41.3367,95.8568 41.5034,98.1902 42,100.5C 43.0386,99.7562 43.5386,98.7562 43.5,97.5C 43.595,95.2143 44.2616,93.2143 45.5,91.5 Z"/></g>
<g><path style="opacity:1" fill="#20342e" d="M 47.5,86.5 C 47.5,87.1667 47.8333,87.5 48.5,87.5C 49.038,89.1172 49.3713,90.7839 49.5,92.5C 49.4107,95.7086 49.744,98.8752 50.5,102C 50.6842,103.376 51.3509,104.209 52.5,104.5C 52.3986,108.575 54.3986,111.075 58.5,112C 56.0261,112.037 54.0261,112.87 52.5,114.5C 48.8333,114.5 45.1667,114.5 41.5,114.5C 40.4107,112.883 38.744,112.05 36.5,112C 40.6014,111.075 42.6014,108.575 42.5,104.5C 44.4395,100.631 45.4395,96.2973 45.5,91.5C 45.7959,89.597 46.4625,87.9303 47.5,86.5 Z"/></g>
<g><path style="opacity:1" fill="#9d7836" d="M 46.5,103.5 C 52.4769,106.077 52.8102,109.077 47.5,112.5C 46.1239,111.158 44.7906,109.825 43.5,108.5C 44.5543,106.799 45.5543,105.132 46.5,103.5 Z"/></g>
<g><path style="opacity:1" fill="#1e3934" d="M 40.5,85.5 C 41.4731,87.9479 41.8064,90.6146 41.5,93.5C 40.3299,95.6502 39.3299,97.9836 38.5,100.5C 39.2427,101.182 39.9094,101.849 40.5,102.5C 39.448,102.351 38.448,102.517 37.5,103C 39.2389,107.8 37.5723,110.966 32.5,112.5C 31.5,112.833 30.8333,113.5 30.5,114.5C 29.1667,114.5 27.8333,114.5 26.5,114.5C 27.2341,113.292 27.5674,111.959 27.5,110.5C 33.1573,110.676 35.324,108.009 34,102.5C 30.9423,101.034 29.109,102.034 28.5,105.5C 27.4324,106.434 26.099,106.768 24.5,106.5C 22.5241,105.573 22.1908,104.24 23.5,102.5C 25.2141,103.609 25.8808,102.942 25.5,100.5C 27.8568,100.663 30.1902,100.497 32.5,100C 34.2465,97.3413 35.5798,94.508 36.5,91.5C 37.4411,89.2279 38.7745,87.2279 40.5,85.5 Z"/></g>
<g><path style="opacity:1" fill="#1b3532" d="M 35.5,81.5 C 36.1667,81.5 36.5,81.8333 36.5,82.5C 36.1667,83.8333 35.8333,85.1667 35.5,86.5C 32.5314,89.6419 29.698,92.9753 27,96.5C 26.2086,97.745 25.7086,99.0783 25.5,100.5C 21.5,99.8333 19.8333,101.5 20.5,105.5C 20.1667,105.5 19.8333,105.5 19.5,105.5C 18.7377,103.738 17.4044,102.738 15.5,102.5C 17.6813,99.737 18.0146,96.737 16.5,93.5C 18.045,94.2297 18.8784,95.563 19,97.5C 23.037,93.631 26.8704,89.631 30.5,85.5C 31.5794,83.457 33.246,82.1237 35.5,81.5 Z"/></g>
<g><path style="opacity:1" fill="#4c331a" d="M 89.5,92.5 C 90.4682,94.6074 90.8016,96.9407 90.5,99.5C 89.2058,100.29 88.0391,101.29 87,102.5C 86.5357,101.906 86.369,101.239 86.5,100.5C 87.1667,100.5 87.5,100.167 87.5,99.5C 88.1174,99.3893 88.6174,99.056 89,98.5C 89.4955,96.5273 89.6621,94.5273 89.5,92.5 Z"/></g>
<g><path style="opacity:1" fill="#d6a346" d="M 87.5,99.5 C 87.5,100.167 87.1667,100.5 86.5,100.5C 85.8333,100.5 85.1667,100.5 84.5,100.5C 82.7868,99.3646 82.1201,97.698 82.5,95.5C 86.2571,95.2864 86.9238,96.2864 84.5,98.5C 85.325,99.3857 86.325,99.719 87.5,99.5 Z"/></g>
<g><path style="opacity:1" fill="#203834" d="M 77.5,99.5 C 78.6253,101.129 79.9586,102.629 81.5,104C 80.5842,104.278 79.9175,104.778 79.5,105.5C 78.9569,105.56 78.6236,105.893 78.5,106.5C 79.2427,107.182 79.9094,107.849 80.5,108.5C 80.3253,110.621 80.6586,112.621 81.5,114.5C 79.629,114.141 78.129,113.141 77,111.5C 76.3836,108.242 76.717,105.242 78,102.5C 76.9609,103.71 75.7942,104.71 74.5,105.5C 75.1667,101.5 73.5,99.8333 69.5,100.5C 68.8333,98.8333 68.1667,97.1667 67.5,95.5C 65.3557,92.201 63.5223,88.8677 62,85.5C 66.7587,90.7659 71.9254,95.4325 77.5,99.5 Z"/></g>
<g><path style="opacity:1" fill="#bd9341" d="M 88.5,92.5 C 88.8333,92.5 89.1667,92.5 89.5,92.5C 89.6621,94.5273 89.4955,96.5273 89,98.5C 88.6174,99.056 88.1174,99.3893 87.5,99.5C 88.2186,97.2362 88.552,94.9029 88.5,92.5 Z"/></g>
<g><path style="opacity:1" fill="#22312a" d="M 85.5,91.5 C 86.609,91.5569 87.609,91.8902 88.5,92.5C 88.552,94.9029 88.2186,97.2362 87.5,99.5C 86.325,99.719 85.325,99.3857 84.5,98.5C 86.9238,96.2864 86.2571,95.2864 82.5,95.5C 82.1201,97.698 82.7868,99.3646 84.5,100.5C 83.3991,101.598 82.0657,101.765 80.5,101C 79.1667,98.6667 79.1667,96.3333 80.5,94C 82.6526,93.9005 84.3192,93.0672 85.5,91.5 Z"/></g>
<g><path style="opacity:1" fill="#2a5c59" d="M 35.5,86.5 C 34.132,89.4258 33.2987,92.4258 33,95.5C 33.9487,93.9069 35.1154,92.5736 36.5,91.5C 35.5798,94.508 34.2465,97.3413 32.5,100C 30.1902,100.497 27.8568,100.663 25.5,100.5C 25.7086,99.0783 26.2086,97.745 27,96.5C 29.698,92.9753 32.5314,89.6419 35.5,86.5 Z"/></g>
<g><path style="opacity:1" fill="#265a57" d="M 60.5,88.5 C 62.6054,91.027 64.9387,93.3603 67.5,95.5C 68.1667,97.1667 68.8333,98.8333 69.5,100.5C 67.1089,99.5924 64.7756,99.4257 62.5,100C 60.7535,97.3413 59.4202,94.508 58.5,91.5C 60.2225,93.2528 61.7225,95.2528 63,97.5C 62.3038,94.5623 61.4704,91.5623 60.5,88.5 Z"/></g>
<g><path style="opacity:1" fill="#1c3b38" d="M 54.5,85.5 C 56.2255,87.2279 57.5589,89.2279 58.5,91.5C 59.4202,94.508 60.7535,97.3413 62.5,100C 64.7756,99.4257 67.1089,99.5924 69.5,100.5C 68.1311,103.131 68.7978,103.798 71.5,102.5C 72.4287,103.689 72.762,105.022 72.5,106.5C 71.8333,106.5 71.1667,106.5 70.5,106.5C 69.1667,106.5 67.8333,106.5 66.5,106.5C 66.7373,105.209 66.404,104.209 65.5,103.5C 64.4151,101.418 62.9151,101.084 61,102.5C 59.7842,106.377 60.9509,109.043 64.5,110.5C 65.209,111.404 66.209,111.737 67.5,111.5C 67.5569,112.609 67.8902,113.609 68.5,114.5C 67.1667,114.5 65.8333,114.5 64.5,114.5C 61.9784,112.639 59.4784,110.639 57,108.5C 56.2571,106.559 56.4238,104.726 57.5,103C 56.552,102.517 55.552,102.351 54.5,102.5C 55.0906,101.849 55.7573,101.182 56.5,100.5C 53.9912,95.5511 53.3246,90.5511 54.5,85.5 Z"/></g>
<g><path style="opacity:1" fill="#67795d" d="M 40.5,85.5 C 40.5,84.8333 40.8333,84.5 41.5,84.5C 41.8333,84.5 42.1667,84.5 42.5,84.5C 42.1818,89.0323 42.5151,93.3656 43.5,97.5C 43.5386,98.7562 43.0386,99.7562 42,100.5C 41.5034,98.1902 41.3367,95.8568 41.5,93.5C 41.8064,90.6146 41.4731,87.9479 40.5,85.5 Z"/></g>
<g><path style="opacity:1" fill="#2c2f24" d="M 13.5,83.5 C 13.7373,84.791 13.404,85.791 12.5,86.5C 9.90781,88.0361 8.90781,90.3695 9.5,93.5C 15.0666,92.7532 16.9,95.0866 15,100.5C 12.6667,101.167 10.3333,101.833 8,102.5C 7.28281,101.956 6.78281,101.289 6.5,100.5C 8.19919,100.66 9.86586,100.494 11.5,100C 12.9295,98.1197 12.5962,96.6197 10.5,95.5C 7.83333,96.5 7.83333,97.5 10.5,98.5C 10.1667,98.8333 9.83333,99.1667 9.5,99.5C 8.58317,98.8728 7.58317,98.5394 6.5,98.5C 6.79472,96.2646 6.46138,94.2646 5.5,92.5C 7.45279,88.8797 10.1195,85.8797 13.5,83.5 Z"/></g>
<g><path style="opacity:1" fill="#255755" d="M 27.5,83.5 C 26.8825,85.2292 25.8825,86.7292 24.5,88C 26.5366,87.5174 28.5366,86.6841 30.5,85.5C 26.8704,89.631 23.037,93.631 19,97.5C 18.8784,95.563 18.045,94.2297 16.5,93.5C 16.281,92.325 16.6143,91.325 17.5,90.5C 20.8694,88.1162 24.2027,85.7829 27.5,83.5 Z"/></g>
<g><path style="opacity:1" fill="#e5bd75" d="M 42.5,84.5 C 43.3019,85.9516 43.8019,87.6183 44,89.5C 44.7393,87.7795 45.5726,86.1128 46.5,84.5C 47.2975,84.9569 47.6309,85.6236 47.5,86.5C 46.4625,87.9303 45.7959,89.597 45.5,91.5C 44.2616,93.2143 43.595,95.2143 43.5,97.5C 42.5151,93.3656 42.1818,89.0323 42.5,84.5 Z"/></g>
<g><path style="opacity:1" fill="#1d2622" d="M 92.5,88.5 C 92.5,90.1667 92.5,91.8333 92.5,93.5C 90.0776,91.7145 90.0776,90.0478 92.5,88.5 Z"/></g>
<g><path style="opacity:1" fill="#3f2816" d="M 80.5,78.5 C 80.8333,78.5 81.1667,78.5 81.5,78.5C 81.3398,80.1992 81.5065,81.8659 82,83.5C 85.1117,86.1009 87.6117,89.1009 89.5,92.5C 89.1667,92.5 88.8333,92.5 88.5,92.5C 87.609,91.8902 86.609,91.5569 85.5,91.5C 85.2792,88.9028 84.7792,88.9028 84,91.5C 83.6667,89.8333 83.3333,88.1667 83,86.5C 82.79,88.0581 82.29,89.3915 81.5,90.5C 81.4431,89.391 81.1098,88.391 80.5,87.5C 81.1032,85.3743 81.1032,83.0409 80.5,80.5C 80.5,79.8333 80.5,79.1667 80.5,78.5 Z"/></g>
<g><path style="opacity:1" fill="#e0bb74" d="M 49.5,92.5 C 49.3713,90.7839 49.038,89.1172 48.5,87.5C 48.369,86.7611 48.5357,86.0944 49,85.5C 50.8112,90.7416 51.8112,90.4083 52,84.5C 52.6667,89.1667 52.6667,93.8333 52,98.5C 51.7599,96.1484 50.9265,94.1484 49.5,92.5 Z"/></g>
<g><path style="opacity:1" fill="#cfb272" d="M 36.5,82.5 C 37.7498,82.5774 38.5831,83.244 39,84.5C 40.3919,82.1582 41.2252,82.1582 41.5,84.5C 40.8333,84.5 40.5,84.8333 40.5,85.5C 38.7745,87.2279 37.4411,89.2279 36.5,91.5C 35.1154,92.5736 33.9487,93.9069 33,95.5C 33.2987,92.4258 34.132,89.4258 35.5,86.5C 35.8333,85.1667 36.1667,83.8333 36.5,82.5 Z"/></g>
<g><path style="opacity:1" fill="#275956" d="M 68.5,85.5 C 71.5162,86.3431 74.1829,87.8431 76.5,90C 77.8228,90.8159 78.4894,91.9826 78.5,93.5C 78.1667,94.1667 77.8333,94.8333 77.5,95.5C 76.7784,95.9175 76.2784,96.5842 76,97.5C 72.2271,94.2365 69.0604,90.5698 66.5,86.5C 67.8149,87.4756 69.1482,88.4756 70.5,89.5C 70.8333,89.3333 71.1667,89.1667 71.5,89C 70.2899,87.9609 69.2899,86.7942 68.5,85.5 Z"/></g>
<g><path style="opacity:1" fill="#c1a96e" d="M 57.5,81.5 C 58.7729,83.7128 59.7729,86.0462 60.5,88.5C 61.4704,91.5623 62.3038,94.5623 63,97.5C 61.7225,95.2528 60.2225,93.2528 58.5,91.5C 57.5589,89.2279 56.2255,87.2279 54.5,85.5C 53.1453,82.203 53.6453,81.8696 56,84.5C 56.2321,83.2625 56.7321,82.2625 57.5,81.5 Z"/></g>
<g><path style="opacity:1" fill="#8a2c13" d="M 6.5,71.5 C 8.55817,72.9331 10.8915,73.5997 13.5,73.5C 13.5,73.8333 13.5,74.1667 13.5,74.5C 10.9991,74.5109 10.8324,75.1776 13,76.5C 13.4955,78.4727 13.6621,80.4727 13.5,82.5C 13.5,82.8333 13.5,83.1667 13.5,83.5C 10.1195,85.8797 7.45279,88.8797 5.5,92.5C 4.84761,93.4486 4.51428,94.6153 4.5,96C 4.30684,98.0081 4.9735,99.5081 6.5,100.5C 6.78281,101.289 7.28281,101.956 8,102.5C 10.3333,101.833 12.6667,101.167 15,100.5C 16.9,95.0866 15.0666,92.7532 9.5,93.5C 8.90781,90.3695 9.90781,88.0361 12.5,86.5C 12.149,89.8116 13.4823,92.145 16.5,93.5C 18.0146,96.737 17.6813,99.737 15.5,102.5C 14.7109,102.783 14.0442,103.283 13.5,104C 16.028,105.316 16.028,106.483 13.5,107.5C 14.6716,109.823 14.6716,112.156 13.5,114.5C 12.4863,115.674 11.153,116.34 9.5,116.5C 7.7839,116.371 6.11723,116.038 4.5,115.5C 2.53587,111.589 3.53587,108.922 7.5,107.5C 8.58617,107.62 9.25284,108.287 9.5,109.5C 8.80863,111.891 7.80863,111.891 6.5,109.5C 4.4038,110.62 4.07047,112.12 5.5,114C 7.5,114.667 9.5,114.667 11.5,114C 13.1903,110.475 12.5236,107.475 9.5,105C 7.12528,102.593 6.12528,103.093 6.5,106.5C 5.5,106.5 4.5,106.5 3.5,106.5C 1.93765,103.701 2.27098,102.034 4.5,101.5C 1.98305,97.796 1.98305,94.1293 4.5,90.5C 4.14451,89.4777 3.47784,88.811 2.5,88.5C 2.5,86.1667 2.5,83.8333 2.5,81.5C 3.53069,80.645 4.69736,79.9783 6,79.5C 6.7648,79.5699 7.2648,79.9033 7.5,80.5C 7.61063,82.6477 6.94396,82.981 5.5,81.5C 4.41728,82.365 4.25061,83.365 5,84.5C 6.30238,83.9152 7.46905,83.2485 8.5,82.5C 9.87795,80.0298 9.54461,77.6965 7.5,75.5C 6.76589,74.2921 6.43255,72.9587 6.5,71.5 Z"/></g>
<g><path style="opacity:1" fill="#714f25" d="M 5.5,92.5 C 6.46138,94.2646 6.79472,96.2646 6.5,98.5C 6.5,99.1667 6.5,99.8333 6.5,100.5C 4.9735,99.5081 4.30684,98.0081 4.5,96C 4.51428,94.6153 4.84761,93.4486 5.5,92.5 Z"/></g>
<g><path style="opacity:1" fill="#d1a045" d="M 6.5,100.5 C 6.5,99.8333 6.5,99.1667 6.5,98.5C 7.58317,98.5394 8.58317,98.8728 9.5,99.5C 9.83333,99.1667 10.1667,98.8333 10.5,98.5C 7.83333,97.5 7.83333,96.5 10.5,95.5C 12.5962,96.6197 12.9295,98.1197 11.5,100C 9.86586,100.494 8.19919,100.66 6.5,100.5 Z"/></g>
<g><path style="opacity:1" fill="#dcb973" d="M 63.5,84.5 C 64.209,83.596 65.209,83.2627 66.5,83.5C 67.5,83.8333 68.1667,84.5 68.5,85.5C 69.2899,86.7942 70.2899,87.9609 71.5,89C 71.1667,89.1667 70.8333,89.3333 70.5,89.5C 69.1482,88.4756 67.8149,87.4756 66.5,86.5C 65.5,85.8333 64.5,85.1667 63.5,84.5 Z"/></g>
<g><path style="opacity:1" fill="#1a3835" d="M 17.5,80.5 C 20.6843,82.4136 24.351,83.0803 28.5,82.5C 28.5,83.1667 28.1667,83.5 27.5,83.5C 24.2027,85.7829 20.8694,88.1162 17.5,90.5C 16.6143,91.325 16.281,92.325 16.5,93.5C 13.4823,92.145 12.149,89.8116 12.5,86.5C 13.404,85.791 13.7373,84.791 13.5,83.5C 13.5,83.1667 13.5,82.8333 13.5,82.5C 14.404,81.791 14.7373,80.791 14.5,79.5C 15.791,79.2627 16.791,79.596 17.5,80.5 Z"/></g>
<g><path style="opacity:1" fill="#1d322d" d="M 75.5,71.5 C 73.8791,73.1172 71.8791,74.2838 69.5,75C 73.0207,76.6738 76.6873,77.8404 80.5,78.5C 80.5,79.1667 80.5,79.8333 80.5,80.5C 76.9896,79.2731 73.4896,77.9397 70,76.5C 69.2352,76.5699 68.7352,76.9033 68.5,77.5C 69.1098,78.391 69.4431,79.391 69.5,80.5C 73.3359,82.5836 77.0026,84.917 80.5,87.5C 81.1098,88.391 81.4431,89.391 81.5,90.5C 80.8333,91.8333 79.8333,92.8333 78.5,93.5C 78.4894,91.9826 77.8228,90.8159 76.5,90C 74.1829,87.8431 71.5162,86.3431 68.5,85.5C 68.1667,84.5 67.5,83.8333 66.5,83.5C 67.1667,82.8333 67.8333,82.1667 68.5,81.5C 67.7347,78.9039 67.4013,76.2372 67.5,73.5C 70.221,73.0372 72.8877,72.3705 75.5,71.5 Z"/></g>
<g><path style="opacity:1" fill="#a73014" d="M 91.5,81.5 C 91.634,83.2915 91.3007,84.9582 90.5,86.5C 88.3023,86.5912 87.9689,85.9245 89.5,84.5C 90.7759,83.6136 90.7759,82.6136 89.5,81.5C 88.056,82.981 87.3894,82.6477 87.5,80.5C 89.1284,79.1472 90.4617,79.4805 91.5,81.5 Z"/></g>
<g><path style="opacity:1" fill="#3f2012" d="M 87.5,80.5 C 87.3894,82.6477 88.056,82.981 89.5,81.5C 90.7759,82.6136 90.7759,83.6136 89.5,84.5C 88.5,83.8333 87.5,83.1667 86.5,82.5C 86.3284,81.5084 86.6618,80.8417 87.5,80.5 Z"/></g>
<g><path style="opacity:1" fill="#255957" d="M 68.5,77.5 C 68.7352,76.9033 69.2352,76.5699 70,76.5C 73.4896,77.9397 76.9896,79.2731 80.5,80.5C 81.1032,83.0409 81.1032,85.3743 80.5,87.5C 77.0026,84.917 73.3359,82.5836 69.5,80.5C 71.2259,80.8146 72.8925,80.9813 74.5,81C 72.6089,79.5576 70.6089,78.3909 68.5,77.5 Z"/></g>
<g><path style="opacity:1" fill="#3f2012" d="M 7.5,80.5 C 8.33825,80.8417 8.67158,81.5084 8.5,82.5C 7.46905,83.2485 6.30238,83.9152 5,84.5C 4.25061,83.365 4.41728,82.365 5.5,81.5C 6.94396,82.981 7.61063,82.6477 7.5,80.5 Z"/></g>
<g><path style="opacity:1" fill="#6b5e38" d="M 59.5,81.5 C 62.5,81.5 65.5,81.5 68.5,81.5C 67.8333,82.1667 67.1667,82.8333 66.5,83.5C 65.209,83.2627 64.209,83.596 63.5,84.5C 62.2597,83.3412 60.9264,82.3412 59.5,81.5 Z"/></g>
<g><path style="opacity:1" fill="#c0a76c" d="M 30.5,74.5 C 29.537,75.3635 29.537,76.0302 30.5,76.5C 36.35,73.6818 37.0166,74.8485 32.5,80C 34.0468,80.3334 35.3801,79.8334 36.5,78.5C 36.8333,78.6667 37.1667,78.8333 37.5,79C 36.6195,79.7083 35.9528,80.5416 35.5,81.5C 33.246,82.1237 31.5794,83.457 30.5,85.5C 28.5366,86.6841 26.5366,87.5174 24.5,88C 25.8825,86.7292 26.8825,85.2292 27.5,83.5C 28.1667,83.5 28.5,83.1667 28.5,82.5C 29.5964,80.8968 30.9297,79.3968 32.5,78C 31.451,77.5078 30.451,77.6744 29.5,78.5C 29.1667,77.8333 28.8333,77.1667 28.5,76.5C 28.7472,75.2867 29.4138,74.62 30.5,74.5 Z"/></g>
<g><path style="opacity:1" fill="#d4a85a" d="M 75.5,57.5 C 76.5,58.1667 77.5,58.8333 78.5,59.5C 78.9695,63.905 77.9695,67.905 75.5,71.5C 72.8877,72.3705 70.221,73.0372 67.5,73.5C 67.4013,76.2372 67.7347,78.9039 68.5,81.5C 65.5,81.5 62.5,81.5 59.5,81.5C 60.7739,72.8203 60.7739,64.1536 59.5,55.5C 63.7953,54.3391 68.1287,54.1725 72.5,55C 73.9423,55.3768 74.9423,56.2101 75.5,57.5 Z"/></g>
<g><path style="opacity:1" fill="#1b3833" d="M 92.5,75.5 C 92.7947,77.7354 92.4614,79.7354 91.5,81.5C 90.4617,79.4805 89.1284,79.1472 87.5,80.5C 86.6618,80.8417 86.3284,81.5084 86.5,82.5C 85.233,79.7835 85.5663,77.1168 87.5,74.5C 88.1174,74.3893 88.6174,74.056 89,73.5C 89.3345,76.1899 90.5012,76.8565 92.5,75.5 Z"/></g>
<g><path style="opacity:1" fill="#ccb06f" d="M 68.5,77.5 C 70.6089,78.3909 72.6089,79.5576 74.5,81C 72.8925,80.9813 71.2259,80.8146 69.5,80.5C 69.4431,79.391 69.1098,78.391 68.5,77.5 Z"/></g>
<g><path style="opacity:1" fill="#49432a" d="M 31.5,72.5 C 31.6716,73.4916 31.3382,74.1583 30.5,74.5C 29.4138,74.62 28.7472,75.2867 28.5,76.5C 28.8333,77.1667 29.1667,77.8333 29.5,78.5C 30.451,77.6744 31.451,77.5078 32.5,78C 30.9297,79.3968 29.5964,80.8968 28.5,82.5C 24.351,83.0803 20.6843,82.4136 17.5,80.5C 17.8333,80.5 18.1667,80.5 18.5,80.5C 21.6399,81.6408 24.9733,81.8075 28.5,81C 27.9341,80.0053 27.2674,79.172 26.5,78.5C 25.4251,74.062 27.0917,72.062 31.5,72.5 Z"/></g>
<g><path style="opacity:1" fill="#263228" d="M 79.5,49.5 C 81.2624,50.2623 82.2624,51.5956 82.5,53.5C 82.6716,54.4916 82.3382,55.1583 81.5,55.5C 81.5,54.5 81.5,53.5 81.5,52.5C 79.1579,52.5041 77.1579,53.3375 75.5,55C 77.4386,55.9078 78.4386,57.4078 78.5,59.5C 77.5,58.8333 76.5,58.1667 75.5,57.5C 74.9423,56.2101 73.9423,55.3768 72.5,55C 68.1287,54.1725 63.7953,54.3391 59.5,55.5C 60.7739,64.1536 60.7739,72.8203 59.5,81.5C 60.9264,82.3412 62.2597,83.3412 63.5,84.5C 64.5,85.1667 65.5,85.8333 66.5,86.5C 69.0604,90.5698 72.2271,94.2365 76,97.5C 76.2784,96.5842 76.7784,95.9175 77.5,95.5C 77.5,96.8333 77.5,98.1667 77.5,99.5C 71.9254,95.4325 66.7587,90.7659 62,85.5C 63.5223,88.8677 65.3557,92.201 67.5,95.5C 64.9387,93.3603 62.6054,91.027 60.5,88.5C 59.7729,86.0462 58.7729,83.7128 57.5,81.5C 58.8333,78.8333 58.1667,78.1667 55.5,79.5C 58.5078,74.3918 59.1745,69.0585 57.5,63.5C 57.2241,60.2814 55.8907,57.6148 53.5,55.5C 55.371,55.1412 56.871,54.1412 58,52.5C 59.1455,53.6843 60.3121,53.6843 61.5,52.5C 63.0502,52.4921 64.7168,52.8254 66.5,53.5C 68.1667,53.5 69.8333,53.5 71.5,53.5C 75.0848,53.7083 77.7515,52.375 79.5,49.5 Z"/></g>
<g><path style="opacity:1" fill="#1d3e3a" d="M 5.5,75.5 C 6.16667,75.5 6.83333,75.5 7.5,75.5C 9.54461,77.6965 9.87795,80.0298 8.5,82.5C 8.67158,81.5084 8.33825,80.8417 7.5,80.5C 7.2648,79.9033 6.7648,79.5699 6,79.5C 4.69736,79.9783 3.53069,80.645 2.5,81.5C 2.5,79.8333 2.5,78.1667 2.5,76.5C 2.83333,76.5 3.16667,76.5 3.5,76.5C 4.49162,76.6716 5.15829,76.3382 5.5,75.5 Z"/></g>
<g><path style="opacity:1" fill="#af3415" d="M 39.5,62.5 C 39.8333,62.5 40.1667,62.5 40.5,62.5C 41.3171,64.9686 41.8171,67.6353 42,70.5C 42.3333,68.8333 42.6667,67.1667 43,65.5C 43.1981,67.3817 43.6981,69.0484 44.5,70.5C 44.2887,74.9836 46.2887,76.8169 50.5,76C 52.2194,72.0431 52.886,67.8764 52.5,63.5C 52.4346,63.0618 52.6012,62.7284 53,62.5C 54.8846,66.0146 56.0512,69.6813 56.5,73.5C 54.347,80.2392 50.0137,82.0726 43.5,79C 39.9843,74.105 38.651,68.605 39.5,62.5 Z"/></g>
<g><path style="opacity:1" fill="#cca358" d="M 39.5,62.5 C 38.651,68.605 39.9843,74.105 43.5,79C 50.0137,82.0726 54.347,80.2392 56.5,73.5C 57.4137,70.272 57.7471,66.9387 57.5,63.5C 59.1745,69.0585 58.5078,74.3918 55.5,79.5C 46.9252,83.9057 41.2585,81.5724 38.5,72.5C 38.1872,68.9581 38.5206,65.6248 39.5,62.5 Z"/></g>
<g><path style="opacity:1" fill="#802a13" d="M 84.5,73.5 C 85.609,73.5569 86.609,73.8902 87.5,74.5C 85.5663,77.1168 85.233,79.7835 86.5,82.5C 87.5,83.1667 88.5,83.8333 89.5,84.5C 87.9689,85.9245 88.3023,86.5912 90.5,86.5C 91.8333,86.5 92.5,87.1667 92.5,88.5C 90.0776,90.0478 90.0776,91.7145 92.5,93.5C 92.7406,95.8984 92.0739,97.8984 90.5,99.5C 90.8016,96.9407 90.4682,94.6074 89.5,92.5C 87.6117,89.1009 85.1117,86.1009 82,83.5C 81.5065,81.8659 81.3398,80.1992 81.5,78.5C 82.075,76.5887 83.075,74.922 84.5,73.5 Z"/></g>
<g><path style="opacity:1" fill="#dba659" d="M 36.5,67.5 C 36.5,67.8333 36.5,68.1667 36.5,68.5C 35.4154,70.5869 33.7488,71.9202 31.5,72.5C 27.0917,72.062 25.4251,74.062 26.5,78.5C 25.5318,76.3926 25.1984,74.0593 25.5,71.5C 30.0506,72.3417 33.7173,71.0083 36.5,67.5 Z"/></g>
<g><path style="opacity:1" fill="#802812" d="M 5.5,75.5 C 5.15829,76.3382 4.49162,76.6716 3.5,76.5C 3.35394,71.8634 4.02061,71.5301 5.5,75.5 Z"/></g>
<g><path style="opacity:1" fill="#2d534d" d="M 36.5,68.5 C 37.1667,69.8333 37.8333,71.1667 38.5,72.5C 41.2585,81.5724 46.9252,83.9057 55.5,79.5C 58.1667,78.1667 58.8333,78.8333 57.5,81.5C 56.7321,82.2625 56.2321,83.2625 56,84.5C 53.6453,81.8696 53.1453,82.203 54.5,85.5C 53.3246,90.5511 53.9912,95.5511 56.5,100.5C 55.7573,101.182 55.0906,101.849 54.5,102.5C 53.5,102.833 52.8333,103.5 52.5,104.5C 51.3509,104.209 50.6842,103.376 50.5,102C 49.744,98.8752 49.4107,95.7086 49.5,92.5C 50.9265,94.1484 51.7599,96.1484 52,98.5C 52.6667,93.8333 52.6667,89.1667 52,84.5C 51.8112,90.4083 50.8112,90.7416 49,85.5C 48.5357,86.0944 48.369,86.7611 48.5,87.5C 47.8333,87.5 47.5,87.1667 47.5,86.5C 47.6309,85.6236 47.2975,84.9569 46.5,84.5C 45.5726,86.1128 44.7393,87.7795 44,89.5C 43.8019,87.6183 43.3019,85.9516 42.5,84.5C 42.1667,84.5 41.8333,84.5 41.5,84.5C 41.2252,82.1582 40.3919,82.1582 39,84.5C 38.5831,83.244 37.7498,82.5774 36.5,82.5C 36.5,81.8333 36.1667,81.5 35.5,81.5C 35.9528,80.5416 36.6195,79.7083 37.5,79C 37.1667,78.8333 36.8333,78.6667 36.5,78.5C 35.3801,79.8334 34.0468,80.3334 32.5,80C 37.0166,74.8485 36.35,73.6818 30.5,76.5C 29.537,76.0302 29.537,75.3635 30.5,74.5C 31.3382,74.1583 31.6716,73.4916 31.5,72.5C 33.7488,71.9202 35.4154,70.5869 36.5,68.5 Z"/></g>
<g><path style="opacity:1" fill="#311f13" d="M 8.5,69.5 C 7.83333,70.1667 7.16667,70.8333 6.5,71.5C 6.43255,72.9587 6.76589,74.2921 7.5,75.5C 6.83333,75.5 6.16667,75.5 5.5,75.5C 4.02061,71.5301 3.35394,71.8634 3.5,76.5C 3.16667,76.5 2.83333,76.5 2.5,76.5C 2.5,74.5 2.5,72.5 2.5,70.5C 4.43525,69.8505 6.43525,69.5172 8.5,69.5 Z"/></g>
<g><path style="opacity:1" fill="#ad8a42" d="M 11.5,68.5 C 12.3764,68.3691 13.0431,68.7025 13.5,69.5C 12.2713,70.2811 10.938,70.7811 9.5,71C 11.437,71.1216 12.7703,71.955 13.5,73.5C 10.8915,73.5997 8.55817,72.9331 6.5,71.5C 7.16667,70.8333 7.83333,70.1667 8.5,69.5C 9.60895,69.4431 10.609,69.1098 11.5,68.5 Z"/></g>
<g><path style="opacity:1" fill="#af8c42" d="M 84.5,68.5 C 85.6002,69.5585 86.9336,70.3918 88.5,71C 86.9336,71.6082 85.6002,72.4415 84.5,73.5C 83.325,73.719 82.325,73.3857 81.5,72.5C 82.7287,71.7189 84.062,71.2189 85.5,71C 84.062,70.7811 82.7287,70.2811 81.5,69.5C 82.325,68.6143 83.325,68.281 84.5,68.5 Z"/></g>
<g><path style="opacity:1" fill="#612412" d="M 12.5,66.5 C 12.1667,67.1667 11.8333,67.8333 11.5,68.5C 10.609,69.1098 9.60895,69.4431 8.5,69.5C 6.43525,69.5172 4.43525,69.8505 2.5,70.5C 2.5,69.1667 2.5,67.8333 2.5,66.5C 4.12377,66.3601 5.29044,67.0267 6,68.5C 7.0391,67.2899 8.20577,66.2899 9.5,65.5C 10.793,64.158 11.6264,62.4913 12,60.5C 12.0395,62.7245 12.2062,64.7245 12.5,66.5 Z"/></g>
<g><path style="opacity:1" fill="#d6a758" d="M 52.5,63.5 C 52.886,67.8764 52.2194,72.0431 50.5,76C 46.2887,76.8169 44.2887,74.9836 44.5,70.5C 43.7691,66.3966 44.7691,62.8966 47.5,60C 49.7972,60.1116 51.4639,61.2783 52.5,63.5 Z"/></g>
<g><path style="opacity:1" fill="#2f3628" d="M 47.5,62.5 C 49.2667,61.35 50.4334,62.0167 51,64.5C 51.5428,67.8678 51.3761,71.2011 50.5,74.5C 48.549,74.7733 47.049,74.1066 46,72.5C 45.1955,69.3035 45.3622,66.3035 46.5,63.5C 46.3359,66.1873 46.5026,68.854 47,71.5C 47.3076,72.3081 47.8076,72.9747 48.5,73.5C 48.8333,72 49.1667,70.5 49.5,69C 49.664,66.4563 48.9973,64.2897 47.5,62.5 Z"/></g>
<g><path style="opacity:1" fill="#695d35" d="M 37.5,61.5 C 38.1667,61.5 38.8333,61.5 39.5,61.5C 39.5,61.8333 39.5,62.1667 39.5,62.5C 38.5206,65.6248 38.1872,68.9581 38.5,72.5C 37.8333,71.1667 37.1667,69.8333 36.5,68.5C 36.5,68.1667 36.5,67.8333 36.5,67.5C 37.4614,65.7354 37.7947,63.7354 37.5,61.5 Z"/></g>
<g><path style="opacity:1" fill="#c89c54" d="M 37.5,61.5 C 37.7947,63.7354 37.4614,65.7354 36.5,67.5C 37.7968,59.297 34.2968,55.297 26,55.5C 24.1667,55.8333 22.3333,56.1667 20.5,56.5C 21.8333,64.1667 21.8333,71.8333 20.5,79.5C 21.5,79.8333 22.5,80.1667 23.5,80.5C 25.0296,80.3601 26.0296,79.6935 26.5,78.5C 27.2674,79.172 27.9341,80.0053 28.5,81C 24.9733,81.8075 21.6399,81.6408 18.5,80.5C 19.8308,72.1965 19.8308,63.8632 18.5,55.5C 23.1313,54.3384 27.798,54.1717 32.5,55C 35.5341,56.1912 37.2007,58.3579 37.5,61.5 Z"/></g>
<g><path style="opacity:1" fill="#1f271f" d="M 17.5,47.5 C 16.3822,52.0214 18.3822,54.0214 23.5,53.5C 24.8333,53.5 26.1667,53.5 27.5,53.5C 29.7206,52.7078 31.7206,52.3744 33.5,52.5C 34.9387,54.3603 36.6053,56.027 38.5,57.5C 39.2022,58.1157 40.2022,58.1157 41.5,57.5C 40.3995,58.6049 39.7329,59.9382 39.5,61.5C 38.8333,61.5 38.1667,61.5 37.5,61.5C 37.2007,58.3579 35.5341,56.1912 32.5,55C 27.798,54.1717 23.1313,54.3384 18.5,55.5C 19.8308,63.8632 19.8308,72.1965 18.5,80.5C 18.1667,80.5 17.8333,80.5 17.5,80.5C 16.791,79.596 15.791,79.2627 14.5,79.5C 14.7373,80.791 14.404,81.791 13.5,82.5C 13.6621,80.4727 13.4955,78.4727 13,76.5C 10.8324,75.1776 10.9991,74.5109 13.5,74.5C 14.9305,74.5792 16.2638,74.2458 17.5,73.5C 18.4841,70.5719 18.8174,67.5719 18.5,64.5C 16.7085,64.366 15.0418,64.6993 13.5,65.5C 13.7931,62.2457 13.1264,59.2457 11.5,56.5C 12.1667,56.5 12.5,56.1667 12.5,55.5C 14.2227,57.78 14.8893,60.4467 14.5,63.5C 15.8333,63.5 17.1667,63.5 18.5,63.5C 19.1347,58.3716 17.4681,54.3716 13.5,51.5C 14.5,49.8333 15.8333,48.5 17.5,47.5 Z"/></g>
<g><path style="opacity:1" fill="#22403c" d="M 13.5,74.5 C 13.5,74.1667 13.5,73.8333 13.5,73.5C 12.7703,71.955 11.437,71.1216 9.5,71C 10.938,70.7811 12.2713,70.2811 13.5,69.5C 13.0431,68.7025 12.3764,68.3691 11.5,68.5C 11.8333,67.8333 12.1667,67.1667 12.5,66.5C 12.5,65.8333 12.8333,65.5 13.5,65.5C 15.0418,64.6993 16.7085,64.366 18.5,64.5C 18.8174,67.5719 18.4841,70.5719 17.5,73.5C 16.2638,74.2458 14.9305,74.5792 13.5,74.5 Z"/></g>
<g><path style="opacity:1" fill="#20322e" d="M 86.5,60.5 C 88.3591,63.0186 90.3591,63.0186 92.5,60.5C 92.5,62.5 92.5,64.5 92.5,66.5C 90.8762,66.3601 89.7096,67.0267 89,68.5C 85.6945,66.4081 84.8612,63.7414 86.5,60.5 Z"/></g>
<g><path style="opacity:1" fill="#1f5655" d="M 47.5,62.5 C 48.9973,64.2897 49.664,66.4563 49.5,69C 49.1667,70.5 48.8333,72 48.5,73.5C 47.8076,72.9747 47.3076,72.3081 47,71.5C 46.5026,68.854 46.3359,66.1873 46.5,63.5C 46.5,62.8333 46.8333,62.5 47.5,62.5 Z"/></g>
<g><path style="opacity:1" fill="#203732" d="M 8.5,59.5 C 9.46138,61.2646 9.79472,63.2646 9.5,65.5C 8.20577,66.2899 7.0391,67.2899 6,68.5C 5.29044,67.0267 4.12377,66.3601 2.5,66.5C 2.5,64.8333 2.5,63.1667 2.5,61.5C 2.83333,61.5 3.16667,61.5 3.5,61.5C 4.56764,62.4345 5.90097,62.7678 7.5,62.5C 8.40397,61.791 8.73731,60.791 8.5,59.5 Z"/></g>
<g><path style="opacity:1" fill="#213c37" d="M 81.5,55.5 C 81.5,56.8333 81.5,58.1667 81.5,59.5C 81.3379,61.5273 81.5045,63.5273 82,65.5C 82.3826,66.056 82.8826,66.3893 83.5,66.5C 83.8333,67.1667 84.1667,67.8333 84.5,68.5C 83.325,68.281 82.325,68.6143 81.5,69.5C 82.7287,70.2811 84.062,70.7811 85.5,71C 84.062,71.2189 82.7287,71.7189 81.5,72.5C 82.325,73.3857 83.325,73.719 84.5,73.5C 83.075,74.922 82.075,76.5887 81.5,78.5C 81.1667,78.5 80.8333,78.5 80.5,78.5C 76.6873,77.8404 73.0207,76.6738 69.5,75C 71.8791,74.2838 73.8791,73.1172 75.5,71.5C 77.9695,67.905 78.9695,63.905 78.5,59.5C 78.4386,57.4078 77.4386,55.9078 75.5,55C 77.1579,53.3375 79.1579,52.5041 81.5,52.5C 81.5,53.5 81.5,54.5 81.5,55.5 Z"/></g>
<g><path style="opacity:1" fill="#b63214" d="M 7.5,62.5 C 5.90097,62.7678 4.56764,62.4345 3.5,61.5C 3.68402,59.0752 4.35068,59.0752 5.5,61.5C 7.00464,58.8694 7.6713,59.2027 7.5,62.5 Z"/></g>
<g><path style="opacity:1" fill="#5f2512" d="M 2.5,53.5 C 3.5,53.5 4.5,53.5 5.5,53.5C 7.98555,54.4616 7.98555,55.2949 5.5,56C 7.38389,56.2163 9.05056,56.883 10.5,58C 9.5842,58.2784 8.91753,58.7784 8.5,59.5C 8.73731,60.791 8.40397,61.791 7.5,62.5C 7.6713,59.2027 7.00464,58.8694 5.5,61.5C 4.35068,59.0752 3.68402,59.0752 3.5,61.5C 3.16667,61.5 2.83333,61.5 2.5,61.5C 2.5,58.8333 2.5,56.1667 2.5,53.5 Z"/></g>
<g><path style="opacity:1" fill="#612613" d="M 86.5,60.5 C 84.8612,63.7414 85.6945,66.4081 89,68.5C 89.7096,67.0267 90.8762,66.3601 92.5,66.5C 92.5,69.5 92.5,72.5 92.5,75.5C 90.5012,76.8565 89.3345,76.1899 89,73.5C 88.6174,74.056 88.1174,74.3893 87.5,74.5C 86.609,73.8902 85.609,73.5569 84.5,73.5C 85.6002,72.4415 86.9336,71.6082 88.5,71C 86.9336,70.3918 85.6002,69.5585 84.5,68.5C 84.1667,67.8333 83.8333,67.1667 83.5,66.5C 81.5353,61.7712 82.8686,58.4378 87.5,56.5C 90.2817,56.859 90.9483,58.1923 89.5,60.5C 88.4728,59.2086 87.4728,59.2086 86.5,60.5 Z"/></g>
<g><path style="opacity:1" fill="#af3717" d="M 75.5,57.5 C 78.2075,61.5239 78.0409,65.5239 75,69.5C 72.4355,71.1793 69.6021,71.846 66.5,71.5C 66.5,74.5 66.5,77.5 66.5,80.5C 64.8333,80.5 63.1667,80.5 61.5,80.5C 61.5,72.1667 61.5,63.8333 61.5,55.5C 66.3617,55.1176 71.0284,55.7843 75.5,57.5 Z"/></g>
<g><path style="opacity:1" fill="#ddb060" d="M 66.5,59.5 C 71.9836,59.4809 73.6503,61.9809 71.5,67C 69.8659,67.4935 68.1992,67.6602 66.5,67.5C 66.5,64.8333 66.5,62.1667 66.5,59.5 Z"/></g>
<g><path style="opacity:1" fill="#303526" d="M 67.5,60.5 C 70.9656,61.109 71.9656,62.9423 70.5,66C 69.552,66.4828 68.552,66.6495 67.5,66.5C 67.5,64.5 67.5,62.5 67.5,60.5 Z"/></g>
<g><path style="opacity:1" fill="#af3616" d="M 45.5,55.5 C 51.3875,55.3947 55.3875,58.0614 57.5,63.5C 57.7471,66.9387 57.4137,70.272 56.5,73.5C 56.0512,69.6813 54.8846,66.0146 53,62.5C 52.6012,62.7284 52.4346,63.0618 52.5,63.5C 51.4639,61.2783 49.7972,60.1116 47.5,60C 44.7691,62.8966 43.7691,66.3966 44.5,70.5C 43.6981,69.0484 43.1981,67.3817 43,65.5C 42.6667,67.1667 42.3333,68.8333 42,70.5C 41.8171,67.6353 41.3171,64.9686 40.5,62.5C 41.7536,59.9066 43.4202,57.5732 45.5,55.5 Z"/></g>
<g><path style="opacity:1" fill="#ae3215" d="M 36.5,67.5 C 33.7173,71.0083 30.0506,72.3417 25.5,71.5C 25.1984,74.0593 25.5318,76.3926 26.5,78.5C 26.0296,79.6935 25.0296,80.3601 23.5,80.5C 22.5,80.1667 21.5,79.8333 20.5,79.5C 21.8333,71.8333 21.8333,64.1667 20.5,56.5C 22.3333,56.1667 24.1667,55.8333 26,55.5C 34.2968,55.297 37.7968,59.297 36.5,67.5 Z"/></g>
<g><path style="opacity:1" fill="#cba35a" d="M 25.5,59.5 C 32.004,59.1377 33.6707,61.6377 30.5,67C 28.8659,67.4935 27.1992,67.6602 25.5,67.5C 25.5,64.8333 25.5,62.1667 25.5,59.5 Z"/></g>
<g><path style="opacity:1" fill="#152f2d" d="M 27.5,61.5 C 28.5,61.5 29.5,61.5 30.5,61.5C 30.8841,63.6648 30.2174,65.3315 28.5,66.5C 27.5481,64.9547 27.2148,63.288 27.5,61.5 Z"/></g>
<g><path style="opacity:1" fill="#25514d" d="M 13.5,51.5 C 17.4681,54.3716 19.1347,58.3716 18.5,63.5C 17.1667,63.5 15.8333,63.5 14.5,63.5C 14.8893,60.4467 14.2227,57.78 12.5,55.5C 12.2322,53.901 12.5655,52.5676 13.5,51.5 Z"/></g>
<g><path style="opacity:1" fill="#afa16c" d="M 57.5,54.5 C 58.7125,55.4971 58.5458,56.4971 57,57.5C 56.5304,56.4232 56.6971,55.4232 57.5,54.5 Z"/></g>
<g><path style="opacity:1" fill="#dc9e55" d="M 45.5,55.5 C 43.4202,57.5732 41.7536,59.9066 40.5,62.5C 40.1667,62.5 39.8333,62.5 39.5,62.5C 39.5,62.1667 39.5,61.8333 39.5,61.5C 39.7329,59.9382 40.3995,58.6049 41.5,57.5C 42.6049,56.3995 43.9382,55.7329 45.5,55.5 Z"/></g>
<g><path style="opacity:1" fill="#d4a75c" d="M 45.5,55.5 C 48.0259,54.3433 50.6926,54.3433 53.5,55.5C 55.8907,57.6148 57.2241,60.2814 57.5,63.5C 55.3875,58.0614 51.3875,55.3947 45.5,55.5 Z"/></g>
<g><path style="opacity:1" fill="#3a4b3d" d="M 53.5,55.5 C 50.6926,54.3433 48.0259,54.3433 45.5,55.5C 43.9382,55.7329 42.6049,56.3995 41.5,57.5C 40.2022,58.1157 39.2022,58.1157 38.5,57.5C 35.4551,51.9211 36.2884,51.2544 41,55.5C 41.3333,53.8333 41.6667,52.1667 42,50.5C 42.9078,52.4386 44.4078,53.4386 46.5,53.5C 47.1667,46.8333 47.8333,46.8333 48.5,53.5C 50.5922,53.4386 52.0922,52.4386 53,50.5C 53.4935,52.1341 53.6602,53.8008 53.5,55.5 Z"/></g>
<g><path style="opacity:1" fill="#8d2611" d="M 89.5,53.5 C 90.5,53.5 91.5,53.5 92.5,53.5C 92.5,54.8333 91.8333,55.5 90.5,55.5C 90.1667,54.8333 89.8333,54.1667 89.5,53.5 Z"/></g>
<g><path style="opacity:1" fill="#392012" d="M 89.5,53.5 C 89.8333,54.1667 90.1667,54.8333 90.5,55.5C 87.1469,55.6547 86.8136,54.9881 89.5,53.5 Z"/></g>
<g><path style="opacity:1" fill="#9f2e13" d="M 91.5,48.5 C 91.1075,50.2838 90.4408,51.9505 89.5,53.5C 86.8136,54.9881 87.1469,55.6547 90.5,55.5C 91.4408,57.0495 92.1075,58.7162 92.5,60.5C 90.3591,63.0186 88.3591,63.0186 86.5,60.5C 87.4728,59.2086 88.4728,59.2086 89.5,60.5C 90.9483,58.1923 90.2817,56.859 87.5,56.5C 82.8686,58.4378 81.5353,61.7712 83.5,66.5C 82.8826,66.3893 82.3826,66.056 82,65.5C 81.5045,63.5273 81.3379,61.5273 81.5,59.5C 82.4013,58.7095 83.0679,57.7095 83.5,56.5C 86.2427,54.7607 88.2427,52.4274 89.5,49.5C 90.2216,49.0825 90.7216,48.4158 91,47.5C 91.3988,47.7284 91.5654,48.0618 91.5,48.5 Z"/></g>
<g><path style="opacity:1" fill="#5e2512" d="M 85.5,52.5 C 84.3995,53.6049 83.7329,54.9382 83.5,56.5C 83.0679,57.7095 82.4013,58.7095 81.5,59.5C 81.5,58.1667 81.5,56.8333 81.5,55.5C 82.3382,55.1583 82.6716,54.4916 82.5,53.5C 83.2679,52.7375 83.7679,51.7375 84,50.5C 84.2784,51.4158 84.7784,52.0825 85.5,52.5 Z"/></g>
<g><path style="opacity:1" fill="#402c18" d="M 88.5,49.5 C 88.8333,49.5 89.1667,49.5 89.5,49.5C 88.2427,52.4274 86.2427,54.7607 83.5,56.5C 83.7329,54.9382 84.3995,53.6049 85.5,52.5C 85.5,51.8333 85.5,51.1667 85.5,50.5C 86.609,50.4431 87.609,50.1098 88.5,49.5 Z"/></g>
<g><path style="opacity:1" fill="#bda669" d="M 27.5,52.5 C 27.5,52.8333 27.5,53.1667 27.5,53.5C 26.1667,53.5 24.8333,53.5 23.5,53.5C 22.5707,52.6851 21.5707,51.8518 20.5,51C 22.8307,51.1571 25.1641,51.6571 27.5,52.5 Z"/></g>
<g><path style="opacity:1" fill="#8f2b13" d="M 4.5,35.5 C 5.63661,36.7888 6.96995,37.7888 8.5,38.5C 7.07501,39.922 6.07501,41.5887 5.5,43.5C 4.25401,46.2933 4.58734,48.96 6.5,51.5C 7.83333,53.5 9.5,55.1667 11.5,56.5C 13.1264,59.2457 13.7931,62.2457 13.5,65.5C 12.8333,65.5 12.5,65.8333 12.5,66.5C 12.2062,64.7245 12.0395,62.7245 12,60.5C 11.6264,62.4913 10.793,64.158 9.5,65.5C 9.79472,63.2646 9.46138,61.2646 8.5,59.5C 8.91753,58.7784 9.5842,58.2784 10.5,58C 9.05056,56.883 7.38389,56.2163 5.5,56C 7.98555,55.2949 7.98555,54.4616 5.5,53.5C 4.73685,51.6316 3.73685,49.9649 2.5,48.5C 2.5,46.8333 2.5,45.1667 2.5,43.5C 4.7082,42.0825 5.54154,40.0825 5,37.5C 4.3918,39.0664 3.55847,40.3998 2.5,41.5C 2.5,40.1667 2.5,38.8333 2.5,37.5C 3.16667,36.8333 3.83333,36.1667 4.5,35.5 Z"/></g>
<g><path style="opacity:1" fill="#1f2621" d="M 2.5,48.5 C 3.73685,49.9649 4.73685,51.6316 5.5,53.5C 4.5,53.5 3.5,53.5 2.5,53.5C 2.5,51.8333 2.5,50.1667 2.5,48.5 Z"/></g>
<g><path style="opacity:1" fill="#242823" d="M 91.5,48.5 C 91.8333,48.5 92.1667,48.5 92.5,48.5C 92.5,50.1667 92.5,51.8333 92.5,53.5C 91.5,53.5 90.5,53.5 89.5,53.5C 90.4408,51.9505 91.1075,50.2838 91.5,48.5 Z"/></g>
<g><path style="opacity:1" fill="#67562a" d="M 1.5,4.5 C 1.83333,4.5 2.16667,4.5 2.5,4.5C 1.90058,7.94761 2.90058,10.6143 5.5,12.5C 3.73192,15.1625 3.06525,18.1625 3.5,21.5C 2.51192,26.6405 2.17859,31.9738 2.5,37.5C 2.5,38.8333 2.5,40.1667 2.5,41.5C 2.5,42.1667 2.5,42.8333 2.5,43.5C 2.5,45.1667 2.5,46.8333 2.5,48.5C 2.5,50.1667 2.5,51.8333 2.5,53.5C 2.5,56.1667 2.5,58.8333 2.5,61.5C 2.5,63.1667 2.5,64.8333 2.5,66.5C 2.5,67.8333 2.5,69.1667 2.5,70.5C 2.5,72.5 2.5,74.5 2.5,76.5C 2.5,78.1667 2.5,79.8333 2.5,81.5C 2.5,83.8333 2.5,86.1667 2.5,88.5C 2.76781,90.099 2.43448,91.4324 1.5,92.5C 1.5,63.1667 1.5,33.8333 1.5,4.5 Z"/></g>
<g><path style="opacity:1" fill="#1a3733" d="M 19.5,40.5 C 23.1667,43.1667 26.8333,45.8333 30.5,48.5C 31.9744,49.4363 32.9744,50.7697 33.5,52.5C 31.7206,52.3744 29.7206,52.7078 27.5,53.5C 27.5,53.1667 27.5,52.8333 27.5,52.5C 24.8388,49.4977 21.5055,47.4977 17.5,46.5C 17.5,44.8333 17.5,43.1667 17.5,41.5C 17.8417,40.6618 18.5084,40.3284 19.5,40.5 Z"/></g>
<g><path style="opacity:1" fill="#8e2b12" d="M 13.5,28.5 C 14.768,30.6702 14.768,32.8368 13.5,35C 15.9574,36.1544 15.9574,37.4877 13.5,39C 14.0944,39.4643 14.7611,39.631 15.5,39.5C 15.8333,40.5 16.5,41.1667 17.5,41.5C 17.5,43.1667 17.5,44.8333 17.5,46.5C 17.5,46.8333 17.5,47.1667 17.5,47.5C 15.8333,48.5 14.5,49.8333 13.5,51.5C 12.5655,52.5676 12.2322,53.901 12.5,55.5C 12.5,56.1667 12.1667,56.5 11.5,56.5C 9.89961,54.4287 9.39961,52.0953 10,49.5C 15.7227,48.56 16.8894,45.7267 13.5,41C 10.7115,40.8749 9.04481,40.0415 8.5,38.5C 11.7058,36.4157 13.0391,33.4157 12.5,29.5C 12.5,28.8333 12.8333,28.5 13.5,28.5 Z"/></g>
<g><path style="opacity:1" fill="#1e322d" d="M 67.5,32.5 C 68.5938,33.5817 69.9271,34.2483 71.5,34.5C 72.7133,34.2528 73.38,33.5862 73.5,32.5C 73.5,31.8333 73.8333,31.5 74.5,31.5C 74.448,33.9029 74.7814,36.2362 75.5,38.5C 74.0152,37.0651 72.6819,37.2317 71.5,39C 73.9316,40.0875 73.5983,40.5875 70.5,40.5C 70.1367,38.0885 71.1367,36.5885 73.5,36C 67.8085,36.5212 64.4752,39.6879 63.5,45.5C 60.8784,47.7819 58.2117,50.1152 55.5,52.5C 55.0941,51.4425 55.0941,50.1092 55.5,48.5C 59.1116,43.281 61.6116,37.6143 63,31.5C 62.6174,32.056 62.1174,32.3893 61.5,32.5C 61.4226,31.2502 60.756,30.4169 59.5,30C 62.6201,29.6409 65.1201,30.8076 67,33.5C 67.3988,33.2716 67.5654,32.9382 67.5,32.5 Z"/></g>
<g><path style="opacity:1" fill="#265956" d="M 17.5,46.5 C 21.5055,47.4977 24.8388,49.4977 27.5,52.5C 25.1641,51.6571 22.8307,51.1571 20.5,51C 21.5707,51.8518 22.5707,52.6851 23.5,53.5C 18.3822,54.0214 16.3822,52.0214 17.5,47.5C 17.5,47.1667 17.5,46.8333 17.5,46.5 Z"/></g>
<g><path style="opacity:1" fill="#233730" d="M 89.5,43.5 C 85.1567,40.1605 82.8234,41.1605 82.5,46.5C 86.2571,46.7136 86.9238,45.7136 84.5,43.5C 85.868,42.4063 87.0347,42.7397 88,44.5C 88.4935,46.1341 88.6602,47.8008 88.5,49.5C 87.609,50.1098 86.609,50.4431 85.5,50.5C 84.0425,48.9892 82.2092,47.9892 80,47.5C 79.1923,45.4213 79.359,43.4213 80.5,41.5C 82.7094,40.8938 84.876,40.2272 87,39.5C 88.4813,40.4709 89.3146,41.8042 89.5,43.5 Z"/></g>
<g><path style="opacity:1" fill="#28332a" d="M 8.5,38.5 C 9.04481,40.0415 10.7115,40.8749 13.5,41C 16.8894,45.7267 15.7227,48.56 10,49.5C 9.39961,52.0953 9.89961,54.4287 11.5,56.5C 9.5,55.1667 7.83333,53.5 6.5,51.5C 6.95393,49.7411 6.95393,47.7411 6.5,45.5C 7.32185,43.2721 8.65518,42.6054 10.5,43.5C 8.0762,45.7136 8.74287,46.7136 12.5,46.5C 12.1766,41.1605 9.84327,40.1605 5.5,43.5C 6.07501,41.5887 7.07501,39.922 8.5,38.5 Z"/></g>
<g><path style="opacity:1" fill="#846730" d="M 5.5,43.5 C 5.32842,44.4916 5.66175,45.1583 6.5,45.5C 6.95393,47.7411 6.95393,49.7411 6.5,51.5C 4.58734,48.96 4.25401,46.2933 5.5,43.5 Z"/></g>
<g><path style="opacity:1" fill="#642b14" d="M 92.5,41.5 C 92.5,43.8333 92.5,46.1667 92.5,48.5C 92.1667,48.5 91.8333,48.5 91.5,48.5C 91.5654,48.0618 91.3988,47.7284 91,47.5C 90.7216,48.4158 90.2216,49.0825 89.5,49.5C 89.5,47.5 89.5,45.5 89.5,43.5C 90.2216,43.9175 90.7216,44.5842 91,45.5C 91.1667,45 91.3333,44.5 91.5,44C 90.2088,41.9497 89.7088,39.783 90,37.5C 90.6082,39.0664 91.4415,40.3998 92.5,41.5 Z"/></g>
<g><path style="opacity:1" fill="#1d3530" d="M 35.5,28.5 C 36.7082,27.218 38.0416,27.218 39.5,28.5C 40.154,30.1151 40.654,31.7818 41,33.5C 42.1882,32.4366 42.6882,31.1033 42.5,29.5C 43.4972,29.4701 44.1639,29.9701 44.5,31C 43.7017,35.2053 44.0351,39.372 45.5,43.5C 45.6641,46.1873 45.4974,48.854 45,51.5C 42.6284,48.0901 40.7951,44.4234 39.5,40.5C 39.2927,37.7594 38.2927,35.4261 36.5,33.5C 38.0234,31.4143 37.69,29.7476 35.5,28.5 Z"/></g>
<g><path style="opacity:1" fill="#cdb174" d="M 55.5,48.5 C 55.0941,50.1092 55.0941,51.4425 55.5,52.5C 58.2117,50.1152 60.8784,47.7819 63.5,45.5C 65.1288,44.3747 66.6288,43.0414 68,41.5C 68.1667,41.8333 68.3333,42.1667 68.5,42.5C 66.7224,44.264 65.3891,46.264 64.5,48.5C 62.7376,49.2623 61.7376,50.5956 61.5,52.5C 60.3121,53.6843 59.1455,53.6843 58,52.5C 56.871,54.1412 55.371,55.1412 53.5,55.5C 53.6602,53.8008 53.4935,52.1341 53,50.5C 52.0922,52.4386 50.5922,53.4386 48.5,53.5C 47.8333,46.8333 47.1667,46.8333 46.5,53.5C 44.4078,53.4386 42.9078,52.4386 42,50.5C 41.6667,52.1667 41.3333,53.8333 41,55.5C 36.2884,51.2544 35.4551,51.9211 38.5,57.5C 36.6053,56.027 34.9387,54.3603 33.5,52.5C 32.9744,50.7697 31.9744,49.4363 30.5,48.5C 28.9941,46.2108 27.8274,43.8774 27,41.5C 29.1057,44.1177 31.6057,46.1177 34.5,47.5C 38.8363,54.2592 40.1697,53.9259 38.5,46.5C 38.3535,43.5569 37.6868,40.7236 36.5,38C 36.6667,37.5 36.8333,37 37,36.5C 37.6082,38.0664 38.4415,39.3998 39.5,40.5C 40.7951,44.4234 42.6284,48.0901 45,51.5C 45.4974,48.854 45.6641,46.1873 45.5,43.5C 46.166,40.6417 46.8326,37.6417 47.5,34.5C 48.5881,40.125 49.4214,45.7917 50,51.5C 52.9212,46.6587 55.5879,41.6587 58,36.5C 57.5047,40.5082 56.6714,44.5082 55.5,48.5 Z"/></g>
<g><path style="opacity:1" fill="#1c3e3c" d="M 75.5,38.5 C 76.7079,39.2341 78.0413,39.5674 79.5,39.5C 76.8333,42.8333 76.8333,46.1667 79.5,49.5C 77.7515,52.375 75.0848,53.7083 71.5,53.5C 72.9361,52.5714 74.2695,51.4048 75.5,50C 72.249,50.4734 69.249,51.6401 66.5,53.5C 64.7168,52.8254 63.0502,52.4921 61.5,52.5C 61.7376,50.5956 62.7376,49.2623 64.5,48.5C 67.6215,46.5518 70.6215,44.3852 73.5,42C 74.8228,41.1841 75.4894,40.0174 75.5,38.5 Z"/></g>
<g><path style="opacity:1" fill="#b4a26b" d="M 71.5,53.5 C 69.8333,53.5 68.1667,53.5 66.5,53.5C 69.249,51.6401 72.249,50.4734 75.5,50C 74.2695,51.4048 72.9361,52.5714 71.5,53.5 Z"/></g>
<g><path style="opacity:1" fill="#ca9c46" d="M 6.5,45.5 C 5.66175,45.1583 5.32842,44.4916 5.5,43.5C 9.84327,40.1605 12.1766,41.1605 12.5,46.5C 8.74287,46.7136 8.0762,45.7136 10.5,43.5C 8.65518,42.6054 7.32185,43.2721 6.5,45.5 Z"/></g>
<g><path style="opacity:1" fill="#c69843" d="M 89.5,43.5 C 89.5,45.5 89.5,47.5 89.5,49.5C 89.1667,49.5 88.8333,49.5 88.5,49.5C 88.6602,47.8008 88.4935,46.1341 88,44.5C 87.0347,42.7397 85.868,42.4063 84.5,43.5C 86.9238,45.7136 86.2571,46.7136 82.5,46.5C 82.8234,41.1605 85.1567,40.1605 89.5,43.5 Z"/></g>
<g><path style="opacity:1" fill="#4b2012" d="M 2.5,43.5 C 2.5,42.8333 2.5,42.1667 2.5,41.5C 3.55847,40.3998 4.3918,39.0664 5,37.5C 5.54154,40.0825 4.7082,42.0825 2.5,43.5 Z"/></g>
<g><path style="opacity:1" fill="#912b13" d="M 82.5,29.5 C 81.7741,33.307 83.1074,35.9737 86.5,37.5C 86.56,38.0431 86.8933,38.3764 87.5,38.5C 88.1667,37.5 88.8333,36.5 89.5,35.5C 90.5178,36.1925 91.5178,36.8592 92.5,37.5C 92.5,38.8333 92.5,40.1667 92.5,41.5C 91.4415,40.3998 90.6082,39.0664 90,37.5C 89.7088,39.783 90.2088,41.9497 91.5,44C 91.3333,44.5 91.1667,45 91,45.5C 90.7216,44.5842 90.2216,43.9175 89.5,43.5C 89.3146,41.8042 88.4813,40.4709 87,39.5C 84.876,40.2272 82.7094,40.8938 80.5,41.5C 79.359,43.4213 79.1923,45.4213 80,47.5C 82.2092,47.9892 84.0425,48.9892 85.5,50.5C 85.5,51.1667 85.5,51.8333 85.5,52.5C 84.7784,52.0825 84.2784,51.4158 84,50.5C 83.7679,51.7375 83.2679,52.7375 82.5,53.5C 82.2624,51.5956 81.2624,50.2623 79.5,49.5C 76.8333,46.1667 76.8333,42.8333 79.5,39.5C 80.6527,38.6868 80.6527,37.6868 79.5,36.5C 80.0253,35.8076 80.6919,35.3076 81.5,35C 80.5939,33.3005 80.2606,31.4672 80.5,29.5C 81.3957,28.4937 82.0623,28.4937 82.5,29.5 Z"/></g>
<g><path style="opacity:1" fill="#1f281f" d="M 20.5,33.5 C 22.5,34.8333 24.5,34.8333 26.5,33.5C 26.5,34.1667 26.8333,34.5 27.5,34.5C 28.5566,36.9413 29.89,39.2746 31.5,41.5C 31.3333,41.8333 31.1667,42.1667 31,42.5C 29.2948,39.4614 26.9615,37.1281 24,35.5C 20.8983,35.6589 20.8983,36.3255 24,37.5C 24.4828,38.448 24.6495,39.448 24.5,40.5C 21.4017,40.5875 21.0684,40.0875 23.5,39C 21.2963,36.9312 19.963,37.4312 19.5,40.5C 18.5084,40.3284 17.8417,40.6618 17.5,41.5C 16.5,41.1667 15.8333,40.5 15.5,39.5C 18.6209,38.7124 20.2876,36.7124 20.5,33.5 Z"/></g>
<g><path style="opacity:1" fill="#245857" d="M 75.5,38.5 C 75.4894,40.0174 74.8228,41.1841 73.5,42C 70.6215,44.3852 67.6215,46.5518 64.5,48.5C 65.3891,46.264 66.7224,44.264 68.5,42.5C 68.3333,42.1667 68.1667,41.8333 68,41.5C 66.6288,43.0414 65.1288,44.3747 63.5,45.5C 64.4752,39.6879 67.8085,36.5212 73.5,36C 71.1367,36.5885 70.1367,38.0885 70.5,40.5C 73.5983,40.5875 73.9316,40.0875 71.5,39C 72.6819,37.2317 74.0152,37.0651 75.5,38.5 Z"/></g>
<g><path style="opacity:1" fill="#215250" d="M 34.5,47.5 C 31.6057,46.1177 29.1057,44.1177 27,41.5C 27.8274,43.8774 28.9941,46.2108 30.5,48.5C 26.8333,45.8333 23.1667,43.1667 19.5,40.5C 19.963,37.4312 21.2963,36.9312 23.5,39C 21.0684,40.0875 21.4017,40.5875 24.5,40.5C 24.6495,39.448 24.4828,38.448 24,37.5C 20.8983,36.3255 20.8983,35.6589 24,35.5C 26.9615,37.1281 29.2948,39.4614 31,42.5C 31.1667,42.1667 31.3333,41.8333 31.5,41.5C 29.89,39.2746 28.5566,36.9413 27.5,34.5C 28.4959,34.5858 29.3292,34.2524 30,33.5C 32.1667,37.8333 34.3333,42.1667 36.5,46.5C 35.7997,46.7871 35.1331,47.1205 34.5,47.5 Z"/></g>
<g><path style="opacity:1" fill="#293c36" d="M 12.5,29.5 C 13.0391,33.4157 11.7058,36.4157 8.5,38.5C 6.96995,37.7888 5.63661,36.7888 4.5,35.5C 4.5,35.1667 4.5,34.8333 4.5,34.5C 6.16667,34.5 7.83333,34.5 9.5,34.5C 9.71363,30.7429 8.71363,30.0762 6.5,32.5C 4.88882,31.6798 4.22216,30.3464 4.5,28.5C 7.41085,27.0165 10.0775,27.3498 12.5,29.5 Z"/></g>
<g><path style="opacity:1" fill="#253630" d="M 80.5,28.5 C 80.5,28.8333 80.5,29.1667 80.5,29.5C 80.2606,31.4672 80.5939,33.3005 81.5,35C 80.6919,35.3076 80.0253,35.8076 79.5,36.5C 80.6527,37.6868 80.6527,38.6868 79.5,39.5C 75.1679,35.2034 75.5013,31.5368 80.5,28.5 Z"/></g>
<g><path style="opacity:1" fill="#245856" d="M 33.5,32.5 C 34.391,33.1098 35.391,33.4431 36.5,33.5C 38.2927,35.4261 39.2927,37.7594 39.5,40.5C 38.4415,39.3998 37.6082,38.0664 37,36.5C 36.8333,37 36.6667,37.5 36.5,38C 37.6868,40.7236 38.3535,43.5569 38.5,46.5C 35.2199,41.9441 33.0533,36.9441 32,31.5C 32.3826,32.056 32.8826,32.3893 33.5,32.5 Z"/></g>
<g><path style="opacity:1" fill="#1d2e27" d="M 33.5,32.5 C 32.8826,32.3893 32.3826,32.056 32,31.5C 33.0533,36.9441 35.2199,41.9441 38.5,46.5C 40.1697,53.9259 38.8363,54.2592 34.5,47.5C 35.1331,47.1205 35.7997,46.7871 36.5,46.5C 34.3333,42.1667 32.1667,37.8333 30,33.5C 29.3292,34.2524 28.4959,34.5858 27.5,34.5C 29.1885,31.1579 31.8552,29.6579 35.5,30C 34.244,30.4169 33.5774,31.2502 33.5,32.5 Z"/></g>
<g><path style="opacity:1" fill="#452012" d="M 92.5,24.5 C 92.5,28.8333 92.5,33.1667 92.5,37.5C 91.5178,36.8592 90.5178,36.1925 89.5,35.5C 88.8333,36.5 88.1667,37.5 87.5,38.5C 86.8933,38.3764 86.56,38.0431 86.5,37.5C 87.625,36.6522 87.625,35.6522 86.5,34.5C 87.9305,34.5792 89.2638,34.2458 90.5,33.5C 91.7691,31.3052 91.7691,29.1385 90.5,27C 91.0659,26.0053 91.7326,25.172 92.5,24.5 Z"/></g>
<g><path style="opacity:1" fill="#1e312a" d="M 56.5,27.5 C 57.4916,27.3284 58.1583,27.6618 58.5,28.5C 57.4017,29.6009 57.235,30.9343 58,32.5C 59.1455,33.6843 60.3121,33.6843 61.5,32.5C 60.4479,34.256 58.7812,34.9227 56.5,34.5C 56.1667,38.5 55.8333,38.5 55.5,34.5C 54.5,34.5 53.5,34.5 52.5,34.5C 52.1103,37.8394 51.6103,41.1727 51,44.5C 50.8333,43 50.6667,41.5 50.5,40C 51.2122,36.9308 51.2122,33.9308 50.5,31C 50.8361,29.9701 51.5028,29.4701 52.5,29.5C 52.3118,31.1033 52.8118,32.4366 54,33.5C 54.2359,31.1887 55.0693,29.1887 56.5,27.5 Z"/></g>
<g><path style="opacity:1" fill="#882a12" d="M 90.5,22.5 C 91.8333,22.5 92.5,23.1667 92.5,24.5C 91.7326,25.172 91.0659,26.0053 90.5,27C 91.7691,29.1385 91.7691,31.3052 90.5,33.5C 89.2638,34.2458 87.9305,34.5792 86.5,34.5C 84.8958,33.713 84.2291,32.3797 84.5,30.5C 86.2895,31.0134 87.9562,31.5134 89.5,32C 90.6123,29.8921 89.9457,28.3921 87.5,27.5C 87.3893,26.8826 87.056,26.3826 86.5,26C 87.9423,25.6232 88.9423,24.7899 89.5,23.5C 89.5,22.8333 89.8333,22.5 90.5,22.5 Z"/></g>
<g><path style="opacity:1" fill="#224d4a" d="M 53.5,27.5 C 53.1667,28.1667 52.8333,28.8333 52.5,29.5C 51.5028,29.4701 50.8361,29.9701 50.5,31C 51.2122,33.9308 51.2122,36.9308 50.5,40C 50.6667,41.5 50.8333,43 51,44.5C 51.6103,41.1727 52.1103,37.8394 52.5,34.5C 53.5,34.5 54.5,34.5 55.5,34.5C 55.8333,38.5 56.1667,38.5 56.5,34.5C 58.7812,34.9227 60.4479,34.256 61.5,32.5C 62.1174,32.3893 62.6174,32.056 63,31.5C 61.6116,37.6143 59.1116,43.281 55.5,48.5C 56.6714,44.5082 57.5047,40.5082 58,36.5C 55.5879,41.6587 52.9212,46.6587 50,51.5C 49.4214,45.7917 48.5881,40.125 47.5,34.5C 46.8326,37.6417 46.166,40.6417 45.5,43.5C 44.0351,39.372 43.7017,35.2053 44.5,31C 44.1639,29.9701 43.4972,29.4701 42.5,29.5C 41.1405,27.9907 41.6405,27.324 44,27.5C 45.3651,27.8443 46.5318,28.5109 47.5,29.5C 49.1789,27.8955 51.1789,27.2289 53.5,27.5 Z"/></g>
<g><path style="opacity:1" fill="#7a2511" d="M 26.5,27.5 C 27.2341,28.7079 27.5674,30.0413 27.5,31.5C 27.1667,32.1667 26.8333,32.8333 26.5,33.5C 24.5,34.8333 22.5,34.8333 20.5,33.5C 20.5,32.8333 20.5,32.1667 20.5,31.5C 21.7079,32.2341 23.0413,32.5674 24.5,32.5C 25.0967,32.2648 25.4301,31.7648 25.5,31C 25.1081,29.9895 24.4415,29.4895 23.5,29.5C 24.0047,28.0815 25.0047,27.4148 26.5,27.5 Z"/></g>
<g><path style="opacity:1" fill="#1d4846" d="M 17.5,31.5 C 18.8333,33.1667 18.8333,34.8333 17.5,36.5C 16.095,34.7749 15.595,32.7749 16,30.5C 16.3826,31.056 16.8826,31.3893 17.5,31.5 Z"/></g>
<g><path style="opacity:1" fill="#1f4743" d="M 87.5,27.5 C 89.9457,28.3921 90.6123,29.8921 89.5,32C 87.9562,31.5134 86.2895,31.0134 84.5,30.5C 84.2291,32.3797 84.8958,33.713 86.5,34.5C 87.625,35.6522 87.625,36.6522 86.5,37.5C 83.1074,35.9737 81.7741,33.307 82.5,29.5C 83.8195,28.0582 85.4862,27.3915 87.5,27.5 Z"/></g>
<g><path style="opacity:1" fill="#9f2e13" d="M 4.5,28.5 C 4.22216,30.3464 4.88882,31.6798 6.5,32.5C 8.71363,30.0762 9.71363,30.7429 9.5,34.5C 7.83333,34.5 6.16667,34.5 4.5,34.5C 3.25844,32.3888 3.25844,30.3888 4.5,28.5 Z"/></g>
<g><path style="opacity:1" fill="#bd903e" d="M 62.5,28.5 C 64.3325,29.2485 65.9991,30.2485 67.5,31.5C 67.5,31.8333 67.5,32.1667 67.5,32.5C 67.5654,32.9382 67.3988,33.2716 67,33.5C 65.1201,30.8076 62.6201,29.6409 59.5,30C 60.756,30.4169 61.4226,31.2502 61.5,32.5C 60.3121,33.6843 59.1455,33.6843 58,32.5C 57.235,30.9343 57.4017,29.6009 58.5,28.5C 59.8333,27.1667 61.1667,27.1667 62.5,28.5 Z"/></g>
<g><path style="opacity:1" fill="#c19440" d="M 32.5,28.5 C 33.5,28.5 34.5,28.5 35.5,28.5C 37.69,29.7476 38.0234,31.4143 36.5,33.5C 35.391,33.4431 34.391,33.1098 33.5,32.5C 33.5774,31.2502 34.244,30.4169 35.5,30C 31.8552,29.6579 29.1885,31.1579 27.5,34.5C 26.8333,34.5 26.5,34.1667 26.5,33.5C 26.8333,32.8333 27.1667,32.1667 27.5,31.5C 29.0009,30.2485 30.6675,29.2485 32.5,28.5 Z"/></g>
<g><path style="opacity:1" fill="#822711" d="M 68.5,27.5 C 69.5,27.5 70.5,27.5 71.5,27.5C 71.6495,28.552 71.4828,29.552 71,30.5C 70.1107,29.1118 69.6107,29.2785 69.5,31C 69.5699,31.7648 69.9033,32.2648 70.5,32.5C 71.5,32.5 72.5,32.5 73.5,32.5C 73.38,33.5862 72.7133,34.2528 71.5,34.5C 69.9271,34.2483 68.5938,33.5817 67.5,32.5C 67.5,32.1667 67.5,31.8333 67.5,31.5C 67.4326,30.0413 67.7659,28.7079 68.5,27.5 Z"/></g>
<g><path style="opacity:1" fill="#712511" d="M 53.5,27.5 C 54.5,27.5 55.5,27.5 56.5,27.5C 55.0693,29.1887 54.2359,31.1887 54,33.5C 52.8118,32.4366 52.3118,31.1033 52.5,29.5C 52.8333,28.8333 53.1667,28.1667 53.5,27.5 Z"/></g>
<g><path style="opacity:1" fill="#25271d" d="M 13.5,27.5 C 15.3407,28.4023 16.674,29.7356 17.5,31.5C 16.8826,31.3893 16.3826,31.056 16,30.5C 15.595,32.7749 16.095,34.7749 17.5,36.5C 16.8333,37.5 16.1667,38.5 15.5,39.5C 14.7611,39.631 14.0944,39.4643 13.5,39C 15.9574,37.4877 15.9574,36.1544 13.5,35C 14.768,32.8368 14.768,30.6702 13.5,28.5C 13.5,28.1667 13.5,27.8333 13.5,27.5 Z"/></g>
<g><path style="opacity:1" fill="#552813" d="M 89.5,23.5 C 88.9423,24.7899 87.9423,25.6232 86.5,26C 87.056,26.3826 87.3893,26.8826 87.5,27.5C 85.4862,27.3915 83.8195,28.0582 82.5,29.5C 82.0623,28.4937 81.3957,28.4937 80.5,29.5C 80.5,29.1667 80.5,28.8333 80.5,28.5C 83.0078,26.0764 86.0078,24.4097 89.5,23.5 Z"/></g>
<g><path style="opacity:1" fill="#c69943" d="M 91.5,16.5 C 91.6747,18.6208 91.3414,20.6208 90.5,22.5C 89.8333,22.5 89.5,22.8333 89.5,23.5C 86.0078,24.4097 83.0078,26.0764 80.5,28.5C 75.5013,31.5368 75.1679,35.2034 79.5,39.5C 78.0413,39.5674 76.7079,39.2341 75.5,38.5C 74.7814,36.2362 74.448,33.9029 74.5,31.5C 75.8962,28.1551 75.2295,25.1551 72.5,22.5C 71.0712,19.6916 70.4045,16.6916 70.5,13.5C 74.0694,7.36042 78.2361,7.02709 83,12.5C 87.4036,10.4816 90.237,11.815 91.5,16.5 Z"/></g>
<g><path style="opacity:1" fill="#684721" d="M 71.5,27.5 C 70.5,27.5 69.5,27.5 68.5,27.5C 66.2646,27.2053 64.2646,27.5386 62.5,28.5C 61.1667,27.1667 59.8333,27.1667 58.5,28.5C 58.1583,27.6618 57.4916,27.3284 56.5,27.5C 55.5,27.5 54.5,27.5 53.5,27.5C 51.1789,27.2289 49.1789,27.8955 47.5,29.5C 46.5318,28.5109 45.3651,27.8443 44,27.5C 41.6405,27.324 41.1405,27.9907 42.5,29.5C 42.6882,31.1033 42.1882,32.4366 41,33.5C 40.654,31.7818 40.154,30.1151 39.5,28.5C 38.0416,27.218 36.7082,27.218 35.5,28.5C 34.5,28.5 33.5,28.5 32.5,28.5C 30.7354,27.5386 28.7354,27.2053 26.5,27.5C 25.0047,27.4148 24.0047,28.0815 23.5,29.5C 24.4415,29.4895 25.1081,29.9895 25.5,31C 25.4301,31.7648 25.0967,32.2648 24.5,32.5C 21.2316,31.1451 20.8983,29.3117 23.5,27C 39.672,26.1719 55.672,26.3386 71.5,27.5 Z"/></g>
<g><path style="opacity:1" fill="#d9aa4c" d="M 74.5,31.5 C 73.8333,31.5 73.5,31.8333 73.5,32.5C 72.5,32.5 71.5,32.5 70.5,32.5C 71.6602,31.735 72.6602,30.735 73.5,29.5C 73.1445,28.4777 72.4778,27.811 71.5,27.5C 55.672,26.3386 39.672,26.1719 23.5,27C 20.8983,29.3117 21.2316,31.1451 24.5,32.5C 23.0413,32.5674 21.7079,32.2341 20.5,31.5C 20.178,29.2776 20.8446,27.4443 22.5,26C 39.1667,25.3333 55.8333,25.3333 72.5,26C 74.1554,27.4443 74.822,29.2776 74.5,31.5 Z"/></g>
<g><path style="opacity:1" fill="#513c1d" d="M 71.5,27.5 C 72.4778,27.811 73.1445,28.4777 73.5,29.5C 72.6602,30.735 71.6602,31.735 70.5,32.5C 69.9033,32.2648 69.5699,31.7648 69.5,31C 69.6107,29.2785 70.1107,29.1118 71,30.5C 71.4828,29.552 71.6495,28.552 71.5,27.5 Z"/></g>
<g><path style="opacity:1" fill="#612512" d="M 3.5,21.5 C 6.614,23.9647 9.94733,25.9647 13.5,27.5C 13.5,27.8333 13.5,28.1667 13.5,28.5C 12.8333,28.5 12.5,28.8333 12.5,29.5C 10.0775,27.3498 7.41085,27.0165 4.5,28.5C 3.25844,30.3888 3.25844,32.3888 4.5,34.5C 4.5,34.8333 4.5,35.1667 4.5,35.5C 3.83333,36.1667 3.16667,36.8333 2.5,37.5C 2.17859,31.9738 2.51192,26.6405 3.5,21.5 Z"/></g>
<g><path style="opacity:1" fill="#422e18" d="M 22.5,22.5 C 30.4722,23.8313 38.8055,24.498 47.5,24.5C 56.1945,24.498 64.5278,23.8313 72.5,22.5C 75.2295,25.1551 75.8962,28.1551 74.5,31.5C 74.822,29.2776 74.1554,27.4443 72.5,26C 55.8333,25.3333 39.1667,25.3333 22.5,26C 20.8446,27.4443 20.178,29.2776 20.5,31.5C 19.1038,28.1551 19.7705,25.1551 22.5,22.5 Z"/></g>
<g><path style="opacity:1" fill="#18302e" d="M 62.5,28.5 C 64.2646,27.5386 66.2646,27.2053 68.5,27.5C 67.7659,28.7079 67.4326,30.0413 67.5,31.5C 65.9991,30.2485 64.3325,29.2485 62.5,28.5 Z"/></g>
<g><path style="opacity:1" fill="#1d3532" d="M 26.5,27.5 C 28.7354,27.2053 30.7354,27.5386 32.5,28.5C 30.6675,29.2485 29.0009,30.2485 27.5,31.5C 27.5674,30.0413 27.2341,28.7079 26.5,27.5 Z"/></g>
<g><path style="opacity:1" fill="#293e36" d="M 86.5,22.5 C 83.3935,24.2285 80.3935,26.2285 77.5,28.5C 76.0816,24.6671 74.4149,21.0005 72.5,17.5C 73.6049,18.6005 74.9382,19.2671 76.5,19.5C 77.7095,19.0679 78.7095,18.4013 79.5,17.5C 79.7828,16.7109 80.2828,16.0442 81,15.5C 81.3333,17.5 81.6667,19.5 82,21.5C 83.3561,22.3802 84.8561,22.7135 86.5,22.5 Z"/></g>
<g><path style="opacity:1" fill="#522c16" d="M 24.5,19.5 C 24.573,21.0269 23.9063,22.0269 22.5,22.5C 22.427,20.9731 23.0937,19.9731 24.5,19.5 Z"/></g>
<g><path style="opacity:1" fill="#c99c44" d="M 24.5,13.5 C 24.5,15.1667 24.5,16.8333 24.5,18.5C 24.5,18.8333 24.5,19.1667 24.5,19.5C 23.0937,19.9731 22.427,20.9731 22.5,22.5C 19.7705,25.1551 19.1038,28.1551 20.5,31.5C 20.5,32.1667 20.5,32.8333 20.5,33.5C 20.2876,36.7124 18.6209,38.7124 15.5,39.5C 16.1667,38.5 16.8333,37.5 17.5,36.5C 18.8333,34.8333 18.8333,33.1667 17.5,31.5C 16.674,29.7356 15.3407,28.4023 13.5,27.5C 9.94733,25.9647 6.614,23.9647 3.5,21.5C 3.06525,18.1625 3.73192,15.1625 5.5,12.5C 7.67016,11.232 9.83683,11.232 12,12.5C 16.7639,7.02709 20.9306,7.36042 24.5,13.5 Z"/></g>
<g><path style="opacity:1" fill="#51371c" d="M 20.5,21.5 C 19.7828,23.9366 18.7828,26.2699 17.5,28.5C 16.1451,27.8118 15.1451,26.8118 14.5,25.5C 15.4959,25.4142 16.3292,25.7476 17,26.5C 17.6972,24.4156 18.8639,22.7489 20.5,21.5 Z"/></g>
<g><path style="opacity:1" fill="#553c1e" d="M 5.5,19.5 C 6.83333,20.1667 7.83333,21.1667 8.5,22.5C 6.5,22.5 5.5,21.5 5.5,19.5 Z"/></g>
<g><path style="opacity:1" fill="#893115" d="M 79.5,11.5 C 80.6366,12.7888 81.9699,13.7888 83.5,14.5C 87.3491,14.0193 89.3491,15.686 89.5,19.5C 89.5,21.5 88.5,22.5 86.5,22.5C 84.8561,22.7135 83.3561,22.3802 82,21.5C 81.6667,19.5 81.3333,17.5 81,15.5C 80.2828,16.0442 79.7828,16.7109 79.5,17.5C 77.0274,17.9118 75.6941,16.9118 75.5,14.5C 74.9033,14.7352 74.5699,15.2352 74.5,16C 74.9783,17.3026 75.645,18.4693 76.5,19.5C 74.9382,19.2671 73.6049,18.6005 72.5,17.5C 71.1667,16.1667 71.1667,14.8333 72.5,13.5C 74.4786,11.8325 76.812,11.1658 79.5,11.5 Z"/></g>
<g><path style="opacity:1" fill="#a52f14" d="M 15.5,11.5 C 17.4672,11.2606 19.3005,11.5939 21,12.5C 21.4966,14.8098 21.6633,17.1432 21.5,19.5C 21.6716,20.4916 21.3382,21.1583 20.5,21.5C 18.8639,22.7489 17.6972,24.4156 17,26.5C 16.3292,25.7476 15.4959,25.4142 14.5,25.5C 12.1815,25.0075 10.1815,24.0075 8.5,22.5C 7.83333,21.1667 6.83333,20.1667 5.5,19.5C 5.62867,17.7839 5.962,16.1172 6.5,14.5C 8.16667,13.1667 9.83333,13.1667 11.5,14.5C 12.1217,15.6266 12.955,16.6266 14,17.5C 14.5046,15.4817 15.0046,13.4817 15.5,11.5 Z"/></g>
<g><path style="opacity:1" fill="#4f2312" d="M 75.5,14.5 C 75.6941,16.9118 77.0274,17.9118 79.5,17.5C 78.7095,18.4013 77.7095,19.0679 76.5,19.5C 75.645,18.4693 74.9783,17.3026 74.5,16C 74.5699,15.2352 74.9033,14.7352 75.5,14.5 Z"/></g>
<g><path style="opacity:1" fill="#ae3317" d="M 72.5,22.5 C 64.5278,23.8313 56.1945,24.498 47.5,24.5C 38.8055,24.498 30.4722,23.8313 22.5,22.5C 23.9063,22.0269 24.573,21.0269 24.5,19.5C 24.5,19.1667 24.5,18.8333 24.5,18.5C 39.2577,16.5415 54.2577,15.8748 69.5,16.5C 69.461,19.089 70.461,21.089 72.5,22.5 Z"/></g>
<g><path style="opacity:1" fill="#d4986e" d="M 38.5,19.5 C 38.6567,20.8734 38.49,22.2068 38,23.5C 36.9887,22.6634 35.8221,22.33 34.5,22.5C 34.4033,18.1841 35.7367,17.1841 38.5,19.5 Z"/></g>
<g><path style="opacity:1" fill="#ddb083" d="M 27.5,17.5 C 31.3404,18.5678 31.5071,20.2345 28,22.5C 27.5065,20.8659 27.3398,19.1992 27.5,17.5 Z"/></g>
<g><path style="opacity:1" fill="#d4956b" d="M 62.5,20.5 C 63.7402,22.3139 63.0735,23.3139 60.5,23.5C 59.0445,22.6102 57.7112,22.6102 56.5,23.5C 55.9041,22.2839 55.7374,20.9506 56,19.5C 52.9793,23.5992 51.8126,22.9325 52.5,17.5C 54.3307,18.0522 55.9974,18.0522 57.5,17.5C 58.439,19.0534 59.6057,20.3867 61,21.5C 61.7648,21.4301 62.2648,21.0967 62.5,20.5 Z"/></g>
<g><path style="opacity:1" fill="#d08c63" d="M 44.5,18.5 C 46.3888,19.3799 48.3888,19.3799 50.5,18.5C 50.6567,19.8734 50.49,21.2068 50,22.5C 48.3264,21.9346 46.4931,21.7679 44.5,22C 43.3157,20.8545 43.3157,19.6879 44.5,18.5 Z"/></g>
<g><path style="opacity:1" fill="#d5996e" d="M 65.5,17.5 C 66.2389,17.369 66.9056,17.5357 67.5,18C 67.8102,19.8741 67.3102,21.7074 66,23.5C 63.9045,22.2845 64.0712,21.4512 66.5,21C 64.273,20.296 63.9397,19.1294 65.5,17.5 Z"/></g>
<g><path style="opacity:1" fill="#d4976c" d="M 38.5,19.5 C 38.62,18.4138 39.2867,17.7472 40.5,17.5C 41.1667,17.8333 41.8333,18.1667 42.5,18.5C 41.9851,20.2251 41.3184,21.8917 40.5,23.5C 39.8281,22.0508 39.1614,20.7175 38.5,19.5 Z"/></g>
<g><path style="opacity:1" fill="#d8a176" d="M 31.5,17.5 C 32.3058,18.9972 32.9724,20.6639 33.5,22.5C 33.1667,22.8333 32.8333,23.1667 32.5,23.5C 31.5344,21.604 31.2011,19.604 31.5,17.5 Z"/></g>
<g><path style="opacity:1" fill="#d9a579" d="M 62.5,20.5 C 60.9519,20.1788 60.2852,19.1788 60.5,17.5C 63.5983,17.4125 63.9316,17.9125 61.5,19C 62.056,19.3826 62.3893,19.8826 62.5,20.5 Z"/></g>
<g><path style="opacity:1" fill="#614721" d="M 6.5,14.5 C 5.962,16.1172 5.62867,17.7839 5.5,19.5C 4.06975,17.5453 4.40309,15.8786 6.5,14.5 Z"/></g>
<g><path style="opacity:1" fill="#572613" d="M 24.5,13.5 C 24.8333,13.5 25.1667,13.5 25.5,13.5C 32.4682,14.8307 39.8016,15.4974 47.5,15.5C 55.1984,15.4974 62.5318,14.8307 69.5,13.5C 69.8333,13.5 70.1667,13.5 70.5,13.5C 70.4045,16.6916 71.0712,19.6916 72.5,22.5C 70.461,21.089 69.461,19.089 69.5,16.5C 54.2577,15.8748 39.2577,16.5415 24.5,18.5C 24.5,16.8333 24.5,15.1667 24.5,13.5 Z"/></g>
<g><path style="opacity:1" fill="#5b2412" d="M 75.5,14.5 C 76.7936,11.8598 78.127,11.8598 79.5,14.5C 79.1924,15.3081 78.6924,15.9747 78,16.5C 77.5831,15.244 76.7498,14.5774 75.5,14.5 Z"/></g>
<g><path style="opacity:1" fill="#4f3319" d="M 15.5,11.5 C 15.0046,13.4817 14.5046,15.4817 14,17.5C 12.955,16.6266 12.1217,15.6266 11.5,14.5C 13.0301,13.7888 14.3634,12.7888 15.5,11.5 Z"/></g>
<g><path style="opacity:1" fill="#573218" d="M 83.5,14.5 C 86.9537,12.6676 89.287,13.6676 90.5,17.5C 90.4573,18.4164 90.1239,19.0831 89.5,19.5C 89.3491,15.686 87.3491,14.0193 83.5,14.5 Z"/></g>
<g><path style="opacity:1" fill="#a48039" d="M 60.5,8.5 C 60.7035,10.3904 60.0368,11.8904 58.5,13C 60.8098,13.4966 63.1432,13.6633 65.5,13.5C 66.8333,13.5 68.1667,13.5 69.5,13.5C 62.5318,14.8307 55.1984,15.4974 47.5,15.5C 39.8016,15.4974 32.4682,14.8307 25.5,13.5C 26.8333,13.5 28.1667,13.5 29.5,13.5C 31.8568,13.6633 34.1902,13.4966 36.5,13C 34.8446,11.5557 34.178,9.72241 34.5,7.5C 36.5514,5.96238 38.218,6.29572 39.5,8.5C 38.7261,9.71118 37.8928,9.71118 37,8.5C 36.5172,9.44802 36.3505,10.448 36.5,11.5C 38.4672,11.7394 40.3005,11.4061 42,10.5C 42.4561,11.7441 41.9561,12.5774 40.5,13C 42.8333,13.1667 45.1667,13.3333 47.5,13.5C 52.0842,13.6659 55.7509,12.9992 58.5,11.5C 58.6495,10.448 58.4828,9.44802 58,8.5C 56.3577,9.84628 55.6911,9.51294 56,7.5C 57.816,6.25677 59.316,6.59011 60.5,8.5 Z"/></g>
<g><path style="opacity:1" fill="#3e1b0f" d="M 61.5,8.5 C 62.1712,9.84714 62.1712,11.0138 61.5,12C 62.7932,12.49 64.1266,12.6567 65.5,12.5C 65.5,12.8333 65.5,13.1667 65.5,13.5C 63.1432,13.6633 60.8098,13.4966 58.5,13C 60.0368,11.8904 60.7035,10.3904 60.5,8.5C 60.8333,7.16667 61.1667,7.16667 61.5,8.5 Z"/></g>
<g><path style="opacity:1" fill="#8e2a12" d="M 61.5,8.5 C 62.6049,9.60048 63.9382,10.2671 65.5,10.5C 65.5,11.1667 65.5,11.8333 65.5,12.5C 64.1266,12.6567 62.7932,12.49 61.5,12C 62.1712,11.0138 62.1712,9.84714 61.5,8.5 Z"/></g>
<g><path style="opacity:1" fill="#932c13" d="M 32.5,8.5 C 33.0141,9.62464 33.3474,10.7913 33.5,12C 32.2068,12.49 30.8734,12.6567 29.5,12.5C 30.2112,10.9699 31.2112,9.63661 32.5,8.5 Z"/></g>
<g><path style="opacity:1" fill="#582e16" d="M 79.5,11.5 C 76.812,11.1658 74.4786,11.8325 72.5,13.5C 72.979,11.1555 74.479,9.82219 77,9.5C 78.301,9.63874 79.1344,10.3054 79.5,11.5 Z"/></g>
<g><path style="opacity:1" fill="#5e3218" d="M 21.5,19.5 C 21.6633,17.1432 21.4966,14.8098 21,12.5C 19.3005,11.5939 17.4672,11.2606 15.5,11.5C 17.4495,9.04797 19.6162,9.04797 22,11.5C 24.0911,14.413 23.9244,17.0797 21.5,19.5 Z"/></g>
<g><path style="opacity:1" fill="#351d12" d="M 32.5,8.5 C 32.8417,7.66175 33.5084,7.32842 34.5,7.5C 34.178,9.72241 34.8446,11.5557 36.5,13C 34.1902,13.4966 31.8568,13.6633 29.5,13.5C 29.5,13.1667 29.5,12.8333 29.5,12.5C 30.8734,12.6567 32.2068,12.49 33.5,12C 33.3474,10.7913 33.0141,9.62464 32.5,8.5 Z"/></g>
<g><path style="opacity:1" fill="#cd9741" d="M 24.5,6.5 C 25.4916,6.32842 26.1583,6.66175 26.5,7.5C 24.7163,8.71994 23.0496,8.71994 21.5,7.5C 22.791,7.73731 23.791,7.40397 24.5,6.5 Z"/></g>
<g><path style="opacity:1" fill="#956d30" d="M 44.5,4.5 C 46.351,4.64907 48.1843,4.64907 50,4.5C 52.0562,7.74028 51.2229,10.0736 47.5,11.5C 43.9813,10.1385 42.9813,7.80521 44.5,4.5 Z"/></g>
<g><path style="opacity:1" fill="#53482f" d="M 94.5,138.5 C 94.5,140.5 93.5,141.5 91.5,141.5C 92.1667,140.167 93.1667,139.167 94.5,138.5 Z"/></g>
<g><path style="opacity:1" fill="#e8d4af" d="M 94.5,138.5 C 94.8333,138.5 95.1667,138.5 95.5,138.5C 95.5,139.833 95.5,141.167 95.5,142.5C 94.1667,142.5 92.8333,142.5 91.5,142.5C 91.5,142.167 91.5,141.833 91.5,141.5C 93.5,141.5 94.5,140.5 94.5,138.5 Z"/></g>
<g><path style="opacity:1" fill="#9c8b68" d="M -0.5,138.5 C -0.166667,138.5 0.166667,138.5 0.5,138.5C 0.5,140.5 1.5,141.5 3.5,141.5C 32.8333,141.5 62.1667,141.5 91.5,141.5C 91.5,141.833 91.5,142.167 91.5,142.5C 60.8333,142.5 30.1667,142.5 -0.5,142.5C -0.5,141.167 -0.5,139.833 -0.5,138.5 Z"/></g>
</svg>
